solid OpenSCAD_Model
  facet normal -0.980785 -0.195092 -4.56197e-08
    outer loop
      vertex -11.0237 5.81863 0
      vertex -10.8669 5.03074 2.03918
      vertex -11.0237 5.81863 2.03918
    endloop
  endfacet
  facet normal -0.980785 -0.195091 1.68176e-07
    outer loop
      vertex -10.8608 5 0
      vertex -10.8669 5.03074 2.03918
      vertex -11.0237 5.81863 0
    endloop
  endfacet
  facet normal -0.980787 -0.19508 0
    outer loop
      vertex -10.8669 5.03074 2.03918
      vertex -10.8608 5 0
      vertex -10.8608 5 2.03918
    endloop
  endfacet
  facet normal 0.980785 -0.195092 -4.56197e-08
    outer loop
      vertex -15.1331 5.03074 2.03918
      vertex -14.9763 5.81863 0
      vertex -14.9763 5.81863 2.03918
    endloop
  endfacet
  facet normal 0.980787 -0.19508 0
    outer loop
      vertex -15.1392 5 0
      vertex -15.1331 5.03074 2.03918
      vertex -15.1392 5 2.03918
    endloop
  endfacet
  facet normal 0.980785 -0.195091 1.68176e-07
    outer loop
      vertex -15.1331 5.03074 2.03918
      vertex -15.1392 5 0
      vertex -14.9763 5.81863 0
    endloop
  endfacet
  facet normal -0.195095 -0.980784 0
    outer loop
      vertex -13 7.13918 0
      vertex -12.9693 7.13307 2.03918
      vertex -13 7.13918 2.03918
    endloop
  endfacet
  facet normal -0.195091 -0.980785 -6.1168e-08
    outer loop
      vertex -12.1814 6.97635 0
      vertex -12.9693 7.13307 2.03918
      vertex -13 7.13918 0
    endloop
  endfacet
  facet normal -0.195091 -0.980785 0
    outer loop
      vertex -12.9693 7.13307 2.03918
      vertex -12.1814 6.97635 0
      vertex -12.1814 6.97635 2.03918
    endloop
  endfacet
  facet normal 0 0 -1
    outer loop
      vertex -14 0 0
      vertex -14.5126 3.48737 0
      vertex -14 3.14484 0
    endloop
  endfacet
  facet normal 0 0 -1
    outer loop
      vertex -18 0 0
      vertex -14.5126 3.48737 0
      vertex -14 0 0
    endloop
  endfacet
  facet normal -0 0 -1
    outer loop
      vertex -14.9763 4.18137 0
      vertex -18 0 0
      vertex -15.1392 5 0
    endloop
  endfacet
  facet normal -0 0 -1
    outer loop
      vertex -14.5126 3.48737 0
      vertex -18 0 0
      vertex -14.9763 4.18137 0
    endloop
  endfacet
  facet normal 0 0 -1
    outer loop
      vertex -14.5126 6.51263 0
      vertex -14 10 0
      vertex -14 6.85516 0
    endloop
  endfacet
  facet normal 0 0 -1
    outer loop
      vertex -18 10 0
      vertex -14.5126 6.51263 0
      vertex -14.9763 5.81863 0
    endloop
  endfacet
  facet normal 0 0 -1
    outer loop
      vertex -18 10 0
      vertex -15.1392 5 0
      vertex -18 0 0
    endloop
  endfacet
  facet normal 0 0 -1
    outer loop
      vertex -15.1392 5 0
      vertex -18 10 0
      vertex -14.9763 5.81863 0
    endloop
  endfacet
  facet normal 0 0 -1
    outer loop
      vertex -14.5126 6.51263 0
      vertex -18 10 0
      vertex -14 10 0
    endloop
  endfacet
  facet normal 0 0 -1
    outer loop
      vertex 18 0 0
      vertex 15.1392 5 0
      vertex 18 10 0
    endloop
  endfacet
  facet normal 0 0 -1
    outer loop
      vertex 18 0 0
      vertex 14.9763 4.18137 0
      vertex 15.1392 5 0
    endloop
  endfacet
  facet normal 0 0 -1
    outer loop
      vertex 18 0 0
      vertex 14.5126 3.48737 0
      vertex 14.9763 4.18137 0
    endloop
  endfacet
  facet normal 0 0 -1
    outer loop
      vertex 14 0 0
      vertex 14.5126 3.48737 0
      vertex 18 0 0
    endloop
  endfacet
  facet normal 0 0 -1
    outer loop
      vertex 14.5126 3.48737 0
      vertex 14 0 0
      vertex 14 3.14484 0
    endloop
  endfacet
  facet normal 0 0 -1
    outer loop
      vertex 14.9763 5.81863 0
      vertex 18 10 0
      vertex 15.1392 5 0
    endloop
  endfacet
  facet normal 0 0 -1
    outer loop
      vertex 14.5126 6.51263 0
      vertex 18 10 0
      vertex 14.9763 5.81863 0
    endloop
  endfacet
  facet normal 0 0 -1
    outer loop
      vertex 14 10 0
      vertex 14.5126 6.51263 0
      vertex 14 6.85516 0
    endloop
  endfacet
  facet normal 0 0 -1
    outer loop
      vertex 14.5126 6.51263 0
      vertex 14 10 0
      vertex 18 10 0
    endloop
  endfacet
  facet normal 0 0 -1
    outer loop
      vertex 14 0 0
      vertex 13.8186 3.02365 0
      vertex 14 3.14484 0
    endloop
  endfacet
  facet normal 0 0 -1
    outer loop
      vertex 14 0 0
      vertex 13 2.86082 0
      vertex 13.8186 3.02365 0
    endloop
  endfacet
  facet normal 0 0 -1
    outer loop
      vertex 14 0 0
      vertex 12.1814 3.02365 0
      vertex 13 2.86082 0
    endloop
  endfacet
  facet normal 0 0 -1
    outer loop
      vertex 14 0 0
      vertex 11.4874 3.48737 0
      vertex 12.1814 3.02365 0
    endloop
  endfacet
  facet normal -0 0 -1
    outer loop
      vertex 11.0237 4.18137 0
      vertex 4.17836 0 0
      vertex 10.8608 5 0
    endloop
  endfacet
  facet normal -0 0 -1
    outer loop
      vertex 11.4874 3.48737 0
      vertex 4.17836 0 0
      vertex 11.0237 4.18137 0
    endloop
  endfacet
  facet normal 0 0 -1
    outer loop
      vertex 4.17836 0 0
      vertex 11.4874 3.48737 0
      vertex 14 0 0
    endloop
  endfacet
  facet normal 0 0 -1
    outer loop
      vertex 13.8186 6.97635 0
      vertex 14 10 0
      vertex 14 6.85516 0
    endloop
  endfacet
  facet normal 0 0 -1
    outer loop
      vertex 13 7.13918 0
      vertex 14 10 0
      vertex 13.8186 6.97635 0
    endloop
  endfacet
  facet normal 0 0 -1
    outer loop
      vertex 12.1814 6.97635 0
      vertex 14 10 0
      vertex 13 7.13918 0
    endloop
  endfacet
  facet normal 0 0 -1
    outer loop
      vertex 11.4874 6.51263 0
      vertex 14 10 0
      vertex 12.1814 6.97635 0
    endloop
  endfacet
  facet normal 0 0 -1
    outer loop
      vertex 4.17836 10 0
      vertex 10.8608 5 0
      vertex 4.17836 0 0
    endloop
  endfacet
  facet normal 0 0 -1
    outer loop
      vertex 10.8608 5 0
      vertex 4.17836 10 0
      vertex 11.0237 5.81863 0
    endloop
  endfacet
  facet normal 0 0 -1
    outer loop
      vertex 11.0237 5.81863 0
      vertex 4.17836 10 0
      vertex 11.4874 6.51263 0
    endloop
  endfacet
  facet normal 0 0 -1
    outer loop
      vertex 11.4874 6.51263 0
      vertex 4.17836 10 0
      vertex 14 10 0
    endloop
  endfacet
  facet normal 0 0 -1
    outer loop
      vertex -4.17836 0 0
      vertex -10.8608 5 0
      vertex -4.17836 10 0
    endloop
  endfacet
  facet normal 0 0 -1
    outer loop
      vertex -4.17836 0 0
      vertex -11.0237 4.18137 0
      vertex -10.8608 5 0
    endloop
  endfacet
  facet normal 0 0 -1
    outer loop
      vertex -4.17836 0 0
      vertex -11.4874 3.48737 0
      vertex -11.0237 4.18137 0
    endloop
  endfacet
  facet normal 0 0 -1
    outer loop
      vertex -4.17836 0 0
      vertex -12.1814 3.02365 0
      vertex -11.4874 3.48737 0
    endloop
  endfacet
  facet normal 0 0 -1
    outer loop
      vertex -14 0 0
      vertex -12.1814 3.02365 0
      vertex -4.17836 0 0
    endloop
  endfacet
  facet normal 0 0 -1
    outer loop
      vertex -12.1814 3.02365 0
      vertex -14 0 0
      vertex -13 2.86082 0
    endloop
  endfacet
  facet normal -0 0 -1
    outer loop
      vertex -13 2.86082 0
      vertex -14 0 0
      vertex -13.8186 3.02365 0
    endloop
  endfacet
  facet normal -0 0 -1
    outer loop
      vertex -13.8186 3.02365 0
      vertex -14 0 0
      vertex -14 3.14484 0
    endloop
  endfacet
  facet normal 0 0 -1
    outer loop
      vertex -11.0237 5.81863 0
      vertex -4.17836 10 0
      vertex -10.8608 5 0
    endloop
  endfacet
  facet normal 0 0 -1
    outer loop
      vertex -11.4874 6.51263 0
      vertex -4.17836 10 0
      vertex -11.0237 5.81863 0
    endloop
  endfacet
  facet normal 0 0 -1
    outer loop
      vertex -12.1814 6.97635 0
      vertex -4.17836 10 0
      vertex -11.4874 6.51263 0
    endloop
  endfacet
  facet normal 0 0 -1
    outer loop
      vertex -14 10 0
      vertex -12.1814 6.97635 0
      vertex -13 7.13918 0
    endloop
  endfacet
  facet normal 0 0 -1
    outer loop
      vertex -14 10 0
      vertex -13 7.13918 0
      vertex -13.8186 6.97635 0
    endloop
  endfacet
  facet normal 0 0 -1
    outer loop
      vertex -12.1814 6.97635 0
      vertex -14 10 0
      vertex -4.17836 10 0
    endloop
  endfacet
  facet normal 0 0 -1
    outer loop
      vertex -14 10 0
      vertex -13.8186 6.97635 0
      vertex -14 6.85516 0
    endloop
  endfacet
  facet normal -0.555574 -0.831467 -0
    outer loop
      vertex -12.1814 6.97635 2.03918
      vertex -12.1814 6.97635 0
      vertex -12.1553 6.95893 2.03918
    endloop
  endfacet
  facet normal -0.555571 -0.831469 -6.70254e-08
    outer loop
      vertex -11.4874 6.51263 0
      vertex -12.1553 6.95893 2.03918
      vertex -12.1814 6.97635 0
    endloop
  endfacet
  facet normal -0.55557 -0.83147 0
    outer loop
      vertex -12.1553 6.95893 2.03918
      vertex -11.4874 6.51263 0
      vertex -11.4874 6.51263 2.03918
    endloop
  endfacet
  facet normal -0.83147 -0.55557 0
    outer loop
      vertex -11.4874 6.51263 0
      vertex -11.0411 5.84469 2.03918
      vertex -11.4874 6.51263 2.03918
    endloop
  endfacet
  facet normal -0.831469 -0.555571 -1.31541e-07
    outer loop
      vertex -11.0237 5.81863 0
      vertex -11.0411 5.84469 2.03918
      vertex -11.4874 6.51263 0
    endloop
  endfacet
  facet normal -0.831465 -0.555578 0
    outer loop
      vertex -11.0411 5.84469 2.03918
      vertex -11.0237 5.81863 0
      vertex -11.0237 5.81863 2.03918
    endloop
  endfacet
  facet normal 0.555571 -0.831469 0
    outer loop
      vertex -14 6.85516 0
      vertex -14.5126 6.51263 2.03918
      vertex -14.5126 6.51263 0
    endloop
  endfacet
  facet normal 0.55557 -0.83147 -4.47085e-08
    outer loop
      vertex -14.5126 6.51263 2.03918
      vertex -14 6.85516 0
      vertex -13.8447 6.95893 2.03918
    endloop
  endfacet
  facet normal 0.555571 -0.831469 -6.60582e-08
    outer loop
      vertex -13.8186 6.97635 0
      vertex -13.8447 6.95893 2.03918
      vertex -14 6.85516 0
    endloop
  endfacet
  facet normal 0.555574 -0.831467 0
    outer loop
      vertex -13.8447 6.95893 2.03918
      vertex -13.8186 6.97635 0
      vertex -13.8186 6.97635 2.03918
    endloop
  endfacet
  facet normal 0.83147 -0.55557 0
    outer loop
      vertex -14.9589 5.84469 2.03918
      vertex -14.5126 6.51263 0
      vertex -14.5126 6.51263 2.03918
    endloop
  endfacet
  facet normal 0.831465 -0.555578 0
    outer loop
      vertex -14.9763 5.81863 0
      vertex -14.9589 5.84469 2.03918
      vertex -14.9763 5.81863 2.03918
    endloop
  endfacet
  facet normal 0.831469 -0.555571 -1.31541e-07
    outer loop
      vertex -14.9589 5.84469 2.03918
      vertex -14.9763 5.81863 0
      vertex -14.5126 6.51263 0
    endloop
  endfacet
  facet normal 0 0 1
    outer loop
      vertex 18 10 4
      vertex 17.1194 5 4
      vertex 18 0 4
    endloop
  endfacet
  facet normal 0 0 1
    outer loop
      vertex 18 10 4
      vertex 17.0402 5.80365 4
      vertex 17.1194 5 4
    endloop
  endfacet
  facet normal 0 0 1
    outer loop
      vertex 18 10 4
      vertex 16.8058 6.57641 4
      vertex 17.0402 5.80365 4
    endloop
  endfacet
  facet normal 0 0 1
    outer loop
      vertex 18 10 4
      vertex 16.4251 7.28859 4
      vertex 16.8058 6.57641 4
    endloop
  endfacet
  facet normal 0 0 1
    outer loop
      vertex 18 10 4
      vertex 15.9128 7.91282 4
      vertex 16.4251 7.28859 4
    endloop
  endfacet
  facet normal 0 0 1
    outer loop
      vertex 18 10 4
      vertex 15.2886 8.42512 4
      vertex 15.9128 7.91282 4
    endloop
  endfacet
  facet normal 0 0 1
    outer loop
      vertex 18 10 4
      vertex 14.5764 8.80579 4
      vertex 15.2886 8.42512 4
    endloop
  endfacet
  facet normal 0 0 1
    outer loop
      vertex 18 10 4
      vertex 13.8036 9.0402 4
      vertex 14.5764 8.80579 4
    endloop
  endfacet
  facet normal 0 0 1
    outer loop
      vertex 18 10 4
      vertex 13 9.11935 4
      vertex 13.8036 9.0402 4
    endloop
  endfacet
  facet normal -0 0 1
    outer loop
      vertex 8 10 4
      vertex 13 9.11935 4
      vertex 18 10 4
    endloop
  endfacet
  facet normal 0 0 1
    outer loop
      vertex 8.9598 5.80365 4
      vertex 8 10 4
      vertex 8.88065 5 4
    endloop
  endfacet
  facet normal 0 0 1
    outer loop
      vertex 9.19421 6.57641 4
      vertex 8 10 4
      vertex 8.9598 5.80365 4
    endloop
  endfacet
  facet normal 0 0 1
    outer loop
      vertex 9.57488 7.28859 4
      vertex 8 10 4
      vertex 9.19421 6.57641 4
    endloop
  endfacet
  facet normal 0 0 1
    outer loop
      vertex 10.0872 7.91282 4
      vertex 8 10 4
      vertex 9.57488 7.28859 4
    endloop
  endfacet
  facet normal 0 0 1
    outer loop
      vertex 10.7114 8.42512 4
      vertex 8 10 4
      vertex 10.0872 7.91282 4
    endloop
  endfacet
  facet normal 0 0 1
    outer loop
      vertex 11.4236 8.80579 4
      vertex 8 10 4
      vertex 10.7114 8.42512 4
    endloop
  endfacet
  facet normal 0 0 1
    outer loop
      vertex 12.1964 9.0402 4
      vertex 8 10 4
      vertex 11.4236 8.80579 4
    endloop
  endfacet
  facet normal 0 0 1
    outer loop
      vertex 13 9.11935 4
      vertex 8 10 4
      vertex 12.1964 9.0402 4
    endloop
  endfacet
  facet normal -0 0 1
    outer loop
      vertex 17.0402 4.19635 4
      vertex 18 0 4
      vertex 17.1194 5 4
    endloop
  endfacet
  facet normal -0 0 1
    outer loop
      vertex 16.8058 3.42359 4
      vertex 18 0 4
      vertex 17.0402 4.19635 4
    endloop
  endfacet
  facet normal -0 0 1
    outer loop
      vertex 16.4251 2.71141 4
      vertex 18 0 4
      vertex 16.8058 3.42359 4
    endloop
  endfacet
  facet normal -0 0 1
    outer loop
      vertex 15.9128 2.08718 4
      vertex 18 0 4
      vertex 16.4251 2.71141 4
    endloop
  endfacet
  facet normal -0 0 1
    outer loop
      vertex 15.2886 1.57488 4
      vertex 18 0 4
      vertex 15.9128 2.08718 4
    endloop
  endfacet
  facet normal -0 0 1
    outer loop
      vertex 14.5764 1.19421 4
      vertex 18 0 4
      vertex 15.2886 1.57488 4
    endloop
  endfacet
  facet normal -0 0 1
    outer loop
      vertex 13.8036 0.959799 4
      vertex 18 0 4
      vertex 14.5764 1.19421 4
    endloop
  endfacet
  facet normal -0 0 1
    outer loop
      vertex 13 0.880646 4
      vertex 18 0 4
      vertex 13.8036 0.959799 4
    endloop
  endfacet
  facet normal 0 0 1
    outer loop
      vertex 8 0 4
      vertex 13 0.880646 4
      vertex 12.1964 0.959799 4
    endloop
  endfacet
  facet normal 0 0 1
    outer loop
      vertex 8 0 4
      vertex 8.88065 5 4
      vertex 8 10 4
    endloop
  endfacet
  facet normal 0 0 1
    outer loop
      vertex 13 0.880646 4
      vertex 8 0 4
      vertex 18 0 4
    endloop
  endfacet
  facet normal 0 0 1
    outer loop
      vertex 11.4236 1.19421 4
      vertex 8 0 4
      vertex 12.1964 0.959799 4
    endloop
  endfacet
  facet normal 0 0 1
    outer loop
      vertex 10.7114 1.57488 4
      vertex 8 0 4
      vertex 11.4236 1.19421 4
    endloop
  endfacet
  facet normal 0 0 1
    outer loop
      vertex 10.0872 2.08718 4
      vertex 8 0 4
      vertex 10.7114 1.57488 4
    endloop
  endfacet
  facet normal 0 0 1
    outer loop
      vertex 9.57488 2.71141 4
      vertex 8 0 4
      vertex 10.0872 2.08718 4
    endloop
  endfacet
  facet normal 0 0 1
    outer loop
      vertex 9.19421 3.42359 4
      vertex 8 0 4
      vertex 9.57488 2.71141 4
    endloop
  endfacet
  facet normal 0 0 1
    outer loop
      vertex 8.9598 4.19635 4
      vertex 8 0 4
      vertex 9.19421 3.42359 4
    endloop
  endfacet
  facet normal 0 0 1
    outer loop
      vertex 8.88065 5 4
      vertex 8 0 4
      vertex 8.9598 4.19635 4
    endloop
  endfacet
  facet normal 0 0 1
    outer loop
      vertex -8 10 4
      vertex -8.88065 5 4
      vertex -8 0 4
    endloop
  endfacet
  facet normal 0 0 1
    outer loop
      vertex -8 10 4
      vertex -8.9598 5.80365 4
      vertex -8.88065 5 4
    endloop
  endfacet
  facet normal 0 0 1
    outer loop
      vertex -8 10 4
      vertex -9.19421 6.57641 4
      vertex -8.9598 5.80365 4
    endloop
  endfacet
  facet normal 0 0 1
    outer loop
      vertex -8 10 4
      vertex -9.57488 7.28859 4
      vertex -9.19421 6.57641 4
    endloop
  endfacet
  facet normal 0 0 1
    outer loop
      vertex -8 10 4
      vertex -10.0872 7.91282 4
      vertex -9.57488 7.28859 4
    endloop
  endfacet
  facet normal 0 0 1
    outer loop
      vertex -8 10 4
      vertex -10.7114 8.42512 4
      vertex -10.0872 7.91282 4
    endloop
  endfacet
  facet normal 0 0 1
    outer loop
      vertex -8 10 4
      vertex -11.4236 8.80579 4
      vertex -10.7114 8.42512 4
    endloop
  endfacet
  facet normal 0 0 1
    outer loop
      vertex -8 10 4
      vertex -12.1964 9.0402 4
      vertex -11.4236 8.80579 4
    endloop
  endfacet
  facet normal 0 0 1
    outer loop
      vertex -8 10 4
      vertex -13 9.11935 4
      vertex -12.1964 9.0402 4
    endloop
  endfacet
  facet normal -0 0 1
    outer loop
      vertex -18 10 4
      vertex -13 9.11935 4
      vertex -8 10 4
    endloop
  endfacet
  facet normal 0 0 1
    outer loop
      vertex -17.0402 5.80365 4
      vertex -18 10 4
      vertex -17.1194 5 4
    endloop
  endfacet
  facet normal 0 0 1
    outer loop
      vertex -16.8058 6.57641 4
      vertex -18 10 4
      vertex -17.0402 5.80365 4
    endloop
  endfacet
  facet normal 0 0 1
    outer loop
      vertex -16.4251 7.28859 4
      vertex -18 10 4
      vertex -16.8058 6.57641 4
    endloop
  endfacet
  facet normal 0 0 1
    outer loop
      vertex -15.9128 7.91282 4
      vertex -18 10 4
      vertex -16.4251 7.28859 4
    endloop
  endfacet
  facet normal 0 0 1
    outer loop
      vertex -15.2886 8.42512 4
      vertex -18 10 4
      vertex -15.9128 7.91282 4
    endloop
  endfacet
  facet normal 0 0 1
    outer loop
      vertex -14.5764 8.80579 4
      vertex -18 10 4
      vertex -15.2886 8.42512 4
    endloop
  endfacet
  facet normal 0 0 1
    outer loop
      vertex -13.8036 9.0402 4
      vertex -18 10 4
      vertex -14.5764 8.80579 4
    endloop
  endfacet
  facet normal 0 0 1
    outer loop
      vertex -13 9.11935 4
      vertex -18 10 4
      vertex -13.8036 9.0402 4
    endloop
  endfacet
  facet normal -0 0 1
    outer loop
      vertex -8.9598 4.19635 4
      vertex -8 0 4
      vertex -8.88065 5 4
    endloop
  endfacet
  facet normal -0 0 1
    outer loop
      vertex -9.19421 3.42359 4
      vertex -8 0 4
      vertex -8.9598 4.19635 4
    endloop
  endfacet
  facet normal -0 0 1
    outer loop
      vertex -9.57488 2.71141 4
      vertex -8 0 4
      vertex -9.19421 3.42359 4
    endloop
  endfacet
  facet normal -0 0 1
    outer loop
      vertex -10.0872 2.08718 4
      vertex -8 0 4
      vertex -9.57488 2.71141 4
    endloop
  endfacet
  facet normal -0 0 1
    outer loop
      vertex -10.7114 1.57488 4
      vertex -8 0 4
      vertex -10.0872 2.08718 4
    endloop
  endfacet
  facet normal -0 0 1
    outer loop
      vertex -11.4236 1.19421 4
      vertex -8 0 4
      vertex -10.7114 1.57488 4
    endloop
  endfacet
  facet normal -0 0 1
    outer loop
      vertex -12.1964 0.959799 4
      vertex -8 0 4
      vertex -11.4236 1.19421 4
    endloop
  endfacet
  facet normal -0 0 1
    outer loop
      vertex -13 0.880646 4
      vertex -8 0 4
      vertex -12.1964 0.959799 4
    endloop
  endfacet
  facet normal 0 0 1
    outer loop
      vertex -18 0 4
      vertex -13 0.880646 4
      vertex -13.8036 0.959799 4
    endloop
  endfacet
  facet normal 0 0 1
    outer loop
      vertex -18 0 4
      vertex -17.1194 5 4
      vertex -18 10 4
    endloop
  endfacet
  facet normal 0 0 1
    outer loop
      vertex -13 0.880646 4
      vertex -18 0 4
      vertex -8 0 4
    endloop
  endfacet
  facet normal 0 0 1
    outer loop
      vertex -14.5764 1.19421 4
      vertex -18 0 4
      vertex -13.8036 0.959799 4
    endloop
  endfacet
  facet normal 0 0 1
    outer loop
      vertex -15.2886 1.57488 4
      vertex -18 0 4
      vertex -14.5764 1.19421 4
    endloop
  endfacet
  facet normal 0 0 1
    outer loop
      vertex -15.9128 2.08718 4
      vertex -18 0 4
      vertex -15.2886 1.57488 4
    endloop
  endfacet
  facet normal 0 0 1
    outer loop
      vertex -16.4251 2.71141 4
      vertex -18 0 4
      vertex -15.9128 2.08718 4
    endloop
  endfacet
  facet normal 0 0 1
    outer loop
      vertex -16.8058 3.42359 4
      vertex -18 0 4
      vertex -16.4251 2.71141 4
    endloop
  endfacet
  facet normal 0 0 1
    outer loop
      vertex -17.0402 4.19635 4
      vertex -18 0 4
      vertex -16.8058 3.42359 4
    endloop
  endfacet
  facet normal 0 0 1
    outer loop
      vertex -17.1194 5 4
      vertex -18 0 4
      vertex -17.0402 4.19635 4
    endloop
  endfacet
  facet normal 0 0 1
    outer loop
      vertex -8.9598 5.80365 4
      vertex -8.9 5 4
      vertex -8.88065 5 4
    endloop
  endfacet
  facet normal -0 0 1
    outer loop
      vertex -9.21209 6.569 4
      vertex -8.9598 5.80365 4
      vertex -9.19421 6.57641 4
    endloop
  endfacet
  facet normal 0 0 1
    outer loop
      vertex -8.9598 5.80365 4
      vertex -9.21209 6.569 4
      vertex -8.9 5 4
    endloop
  endfacet
  facet normal 0 0 1
    outer loop
      vertex -9.57488 7.28859 4
      vertex -9.21209 6.569 4
      vertex -9.19421 6.57641 4
    endloop
  endfacet
  facet normal -0 0 1
    outer loop
      vertex -10.1009 7.89914 4
      vertex -9.57488 7.28859 4
      vertex -10.0872 7.91282 4
    endloop
  endfacet
  facet normal 0 0 1
    outer loop
      vertex -9.57488 7.28859 4
      vertex -10.1009 7.89914 4
      vertex -9.21209 6.569 4
    endloop
  endfacet
  facet normal 0 0 1
    outer loop
      vertex -10.7114 8.42512 4
      vertex -10.1009 7.89914 4
      vertex -10.0872 7.91282 4
    endloop
  endfacet
  facet normal -0 0 1
    outer loop
      vertex -11.431 8.78791 4
      vertex -10.7114 8.42512 4
      vertex -11.4236 8.80579 4
    endloop
  endfacet
  facet normal 0 0 1
    outer loop
      vertex -10.7114 8.42512 4
      vertex -11.431 8.78791 4
      vertex -10.1009 7.89914 4
    endloop
  endfacet
  facet normal 0 0 1
    outer loop
      vertex -12.1964 9.0402 4
      vertex -11.431 8.78791 4
      vertex -11.4236 8.80579 4
    endloop
  endfacet
  facet normal -0 0 1
    outer loop
      vertex -13 9.1 4
      vertex -12.1964 9.0402 4
      vertex -13 9.11935 4
    endloop
  endfacet
  facet normal 0 0 1
    outer loop
      vertex -12.1964 9.0402 4
      vertex -13 9.1 4
      vertex -11.431 8.78791 4
    endloop
  endfacet
  facet normal 0 0 1
    outer loop
      vertex -13.8036 9.0402 4
      vertex -13 9.1 4
      vertex -13 9.11935 4
    endloop
  endfacet
  facet normal -0 0 1
    outer loop
      vertex -13.8036 9.0402 4
      vertex -14.569 8.78791 4
      vertex -13 9.1 4
    endloop
  endfacet
  facet normal -0 0 1
    outer loop
      vertex -14.5764 8.80579 4
      vertex -14.569 8.78791 4
      vertex -13.8036 9.0402 4
    endloop
  endfacet
  facet normal 0 0 1
    outer loop
      vertex -15.2886 8.42512 4
      vertex -14.569 8.78791 4
      vertex -14.5764 8.80579 4
    endloop
  endfacet
  facet normal -0 0 1
    outer loop
      vertex -15.2886 8.42512 4
      vertex -15.8991 7.89914 4
      vertex -14.569 8.78791 4
    endloop
  endfacet
  facet normal -0 0 1
    outer loop
      vertex -15.9128 7.91282 4
      vertex -15.8991 7.89914 4
      vertex -15.2886 8.42512 4
    endloop
  endfacet
  facet normal 0 0 1
    outer loop
      vertex -16.4251 7.28859 4
      vertex -15.8991 7.89914 4
      vertex -15.9128 7.91282 4
    endloop
  endfacet
  facet normal -0 0 1
    outer loop
      vertex -16.4251 7.28859 4
      vertex -16.7879 6.569 4
      vertex -15.8991 7.89914 4
    endloop
  endfacet
  facet normal -0 0 1
    outer loop
      vertex -16.8058 6.57641 4
      vertex -16.7879 6.569 4
      vertex -16.4251 7.28859 4
    endloop
  endfacet
  facet normal 0 0 1
    outer loop
      vertex -17.0402 5.80365 4
      vertex -16.7879 6.569 4
      vertex -16.8058 6.57641 4
    endloop
  endfacet
  facet normal -0 0 1
    outer loop
      vertex -17.0402 5.80365 4
      vertex -17.1 5 4
      vertex -16.7879 6.569 4
    endloop
  endfacet
  facet normal 0 -0 1
    outer loop
      vertex -17.1 5 4
      vertex -17.0402 5.80365 4
      vertex -17.1194 5 4
    endloop
  endfacet
  facet normal -0 0 1
    outer loop
      vertex -8.9 5 4
      vertex -8.9598 4.19635 4
      vertex -8.88065 5 4
    endloop
  endfacet
  facet normal 0 0 1
    outer loop
      vertex -9.21209 3.431 4
      vertex -8.9598 4.19635 4
      vertex -8.9 5 4
    endloop
  endfacet
  facet normal 0 0 1
    outer loop
      vertex -8.9598 4.19635 4
      vertex -9.21209 3.431 4
      vertex -9.19421 3.42359 4
    endloop
  endfacet
  facet normal 0 0 1
    outer loop
      vertex -9.21209 3.431 4
      vertex -9.57488 2.71141 4
      vertex -9.19421 3.42359 4
    endloop
  endfacet
  facet normal 0 0 1
    outer loop
      vertex -10.1009 2.10086 4
      vertex -9.57488 2.71141 4
      vertex -9.21209 3.431 4
    endloop
  endfacet
  facet normal 0 0 1
    outer loop
      vertex -9.57488 2.71141 4
      vertex -10.1009 2.10086 4
      vertex -10.0872 2.08718 4
    endloop
  endfacet
  facet normal 0 0 1
    outer loop
      vertex -10.1009 2.10086 4
      vertex -10.7114 1.57488 4
      vertex -10.0872 2.08718 4
    endloop
  endfacet
  facet normal 0 0 1
    outer loop
      vertex -11.431 1.21209 4
      vertex -10.7114 1.57488 4
      vertex -10.1009 2.10086 4
    endloop
  endfacet
  facet normal 0 0 1
    outer loop
      vertex -10.7114 1.57488 4
      vertex -11.431 1.21209 4
      vertex -11.4236 1.19421 4
    endloop
  endfacet
  facet normal 0 0 1
    outer loop
      vertex -11.431 1.21209 4
      vertex -12.1964 0.959799 4
      vertex -11.4236 1.19421 4
    endloop
  endfacet
  facet normal 0 0 1
    outer loop
      vertex -13 0.900001 4
      vertex -12.1964 0.959799 4
      vertex -11.431 1.21209 4
    endloop
  endfacet
  facet normal -0 0 1
    outer loop
      vertex -13 0.900001 4
      vertex -13 0.880646 4
      vertex -12.1964 0.959799 4
    endloop
  endfacet
  facet normal 0 0 1
    outer loop
      vertex -13 0.900001 4
      vertex -13.8036 0.959799 4
      vertex -13 0.880646 4
    endloop
  endfacet
  facet normal 0 0 1
    outer loop
      vertex -14.569 1.21209 4
      vertex -13.8036 0.959799 4
      vertex -13 0.900001 4
    endloop
  endfacet
  facet normal 0 0 1
    outer loop
      vertex -14.569 1.21209 4
      vertex -14.5764 1.19421 4
      vertex -13.8036 0.959799 4
    endloop
  endfacet
  facet normal 0 0 1
    outer loop
      vertex -14.569 1.21209 4
      vertex -15.2886 1.57488 4
      vertex -14.5764 1.19421 4
    endloop
  endfacet
  facet normal 0 0 1
    outer loop
      vertex -15.8991 2.10086 4
      vertex -15.2886 1.57488 4
      vertex -14.569 1.21209 4
    endloop
  endfacet
  facet normal 0 0 1
    outer loop
      vertex -15.8991 2.10086 4
      vertex -15.9128 2.08718 4
      vertex -15.2886 1.57488 4
    endloop
  endfacet
  facet normal 0 0 1
    outer loop
      vertex -15.8991 2.10086 4
      vertex -16.4251 2.71141 4
      vertex -15.9128 2.08718 4
    endloop
  endfacet
  facet normal 0 0 1
    outer loop
      vertex -16.7879 3.431 4
      vertex -16.4251 2.71141 4
      vertex -15.8991 2.10086 4
    endloop
  endfacet
  facet normal 0 0 1
    outer loop
      vertex -16.7879 3.431 4
      vertex -16.8058 3.42359 4
      vertex -16.4251 2.71141 4
    endloop
  endfacet
  facet normal 0 0 1
    outer loop
      vertex -16.7879 3.431 4
      vertex -17.0402 4.19635 4
      vertex -16.8058 3.42359 4
    endloop
  endfacet
  facet normal 0 0 1
    outer loop
      vertex -17.1 5 4
      vertex -17.0402 4.19635 4
      vertex -16.7879 3.431 4
    endloop
  endfacet
  facet normal 0 0 1
    outer loop
      vertex -17.0402 4.19635 4
      vertex -17.1 5 4
      vertex -17.1194 5 4
    endloop
  endfacet
  facet normal 0 0 1
    outer loop
      vertex 17.0402 5.80365 4
      vertex 17.1 5 4
      vertex 17.1194 5 4
    endloop
  endfacet
  facet normal -0 0 1
    outer loop
      vertex 16.7879 6.569 4
      vertex 17.0402 5.80365 4
      vertex 16.8058 6.57641 4
    endloop
  endfacet
  facet normal 0 0 1
    outer loop
      vertex 17.0402 5.80365 4
      vertex 16.7879 6.569 4
      vertex 17.1 5 4
    endloop
  endfacet
  facet normal 0 0 1
    outer loop
      vertex 16.4251 7.28859 4
      vertex 16.7879 6.569 4
      vertex 16.8058 6.57641 4
    endloop
  endfacet
  facet normal -0 0 1
    outer loop
      vertex 15.8991 7.89914 4
      vertex 16.4251 7.28859 4
      vertex 15.9128 7.91282 4
    endloop
  endfacet
  facet normal 0 0 1
    outer loop
      vertex 16.4251 7.28859 4
      vertex 15.8991 7.89914 4
      vertex 16.7879 6.569 4
    endloop
  endfacet
  facet normal 0 0 1
    outer loop
      vertex 15.2886 8.42512 4
      vertex 15.8991 7.89914 4
      vertex 15.9128 7.91282 4
    endloop
  endfacet
  facet normal -0 0 1
    outer loop
      vertex 14.569 8.78791 4
      vertex 15.2886 8.42512 4
      vertex 14.5764 8.80579 4
    endloop
  endfacet
  facet normal 0 0 1
    outer loop
      vertex 15.2886 8.42512 4
      vertex 14.569 8.78791 4
      vertex 15.8991 7.89914 4
    endloop
  endfacet
  facet normal 0 0 1
    outer loop
      vertex 13.8036 9.0402 4
      vertex 14.569 8.78791 4
      vertex 14.5764 8.80579 4
    endloop
  endfacet
  facet normal -0 0 1
    outer loop
      vertex 13 9.1 4
      vertex 13.8036 9.0402 4
      vertex 13 9.11935 4
    endloop
  endfacet
  facet normal 0 0 1
    outer loop
      vertex 13.8036 9.0402 4
      vertex 13 9.1 4
      vertex 14.569 8.78791 4
    endloop
  endfacet
  facet normal 0 0 1
    outer loop
      vertex 12.1964 9.0402 4
      vertex 13 9.1 4
      vertex 13 9.11935 4
    endloop
  endfacet
  facet normal -0 0 1
    outer loop
      vertex 12.1964 9.0402 4
      vertex 11.431 8.78791 4
      vertex 13 9.1 4
    endloop
  endfacet
  facet normal -0 0 1
    outer loop
      vertex 11.4236 8.80579 4
      vertex 11.431 8.78791 4
      vertex 12.1964 9.0402 4
    endloop
  endfacet
  facet normal 0 0 1
    outer loop
      vertex 10.7114 8.42512 4
      vertex 11.431 8.78791 4
      vertex 11.4236 8.80579 4
    endloop
  endfacet
  facet normal -0 0 1
    outer loop
      vertex 10.7114 8.42512 4
      vertex 10.1009 7.89914 4
      vertex 11.431 8.78791 4
    endloop
  endfacet
  facet normal -0 0 1
    outer loop
      vertex 10.0872 7.91282 4
      vertex 10.1009 7.89914 4
      vertex 10.7114 8.42512 4
    endloop
  endfacet
  facet normal 0 0 1
    outer loop
      vertex 9.57488 7.28859 4
      vertex 10.1009 7.89914 4
      vertex 10.0872 7.91282 4
    endloop
  endfacet
  facet normal -0 0 1
    outer loop
      vertex 9.57488 7.28859 4
      vertex 9.21209 6.569 4
      vertex 10.1009 7.89914 4
    endloop
  endfacet
  facet normal -0 0 1
    outer loop
      vertex 9.19421 6.57641 4
      vertex 9.21209 6.569 4
      vertex 9.57488 7.28859 4
    endloop
  endfacet
  facet normal 0 0 1
    outer loop
      vertex 8.9598 5.80365 4
      vertex 9.21209 6.569 4
      vertex 9.19421 6.57641 4
    endloop
  endfacet
  facet normal -0 0 1
    outer loop
      vertex 8.9598 5.80365 4
      vertex 8.9 5 4
      vertex 9.21209 6.569 4
    endloop
  endfacet
  facet normal 0 -0 1
    outer loop
      vertex 8.9 5 4
      vertex 8.9598 5.80365 4
      vertex 8.88065 5 4
    endloop
  endfacet
  facet normal -0 0 1
    outer loop
      vertex 17.1 5 4
      vertex 17.0402 4.19635 4
      vertex 17.1194 5 4
    endloop
  endfacet
  facet normal 0 0 1
    outer loop
      vertex 16.7879 3.431 4
      vertex 17.0402 4.19635 4
      vertex 17.1 5 4
    endloop
  endfacet
  facet normal 0 0 1
    outer loop
      vertex 17.0402 4.19635 4
      vertex 16.7879 3.431 4
      vertex 16.8058 3.42359 4
    endloop
  endfacet
  facet normal 0 0 1
    outer loop
      vertex 16.7879 3.431 4
      vertex 16.4251 2.71141 4
      vertex 16.8058 3.42359 4
    endloop
  endfacet
  facet normal 0 0 1
    outer loop
      vertex 15.8991 2.10086 4
      vertex 16.4251 2.71141 4
      vertex 16.7879 3.431 4
    endloop
  endfacet
  facet normal 0 0 1
    outer loop
      vertex 16.4251 2.71141 4
      vertex 15.8991 2.10086 4
      vertex 15.9128 2.08718 4
    endloop
  endfacet
  facet normal 0 0 1
    outer loop
      vertex 15.8991 2.10086 4
      vertex 15.2886 1.57488 4
      vertex 15.9128 2.08718 4
    endloop
  endfacet
  facet normal 0 0 1
    outer loop
      vertex 14.569 1.21209 4
      vertex 15.2886 1.57488 4
      vertex 15.8991 2.10086 4
    endloop
  endfacet
  facet normal 0 0 1
    outer loop
      vertex 15.2886 1.57488 4
      vertex 14.569 1.21209 4
      vertex 14.5764 1.19421 4
    endloop
  endfacet
  facet normal 0 0 1
    outer loop
      vertex 14.569 1.21209 4
      vertex 13.8036 0.959799 4
      vertex 14.5764 1.19421 4
    endloop
  endfacet
  facet normal 0 0 1
    outer loop
      vertex 13 0.900001 4
      vertex 13.8036 0.959799 4
      vertex 14.569 1.21209 4
    endloop
  endfacet
  facet normal -0 0 1
    outer loop
      vertex 13 0.900001 4
      vertex 13 0.880646 4
      vertex 13.8036 0.959799 4
    endloop
  endfacet
  facet normal 0 0 1
    outer loop
      vertex 13 0.900001 4
      vertex 12.1964 0.959799 4
      vertex 13 0.880646 4
    endloop
  endfacet
  facet normal 0 0 1
    outer loop
      vertex 11.431 1.21209 4
      vertex 12.1964 0.959799 4
      vertex 13 0.900001 4
    endloop
  endfacet
  facet normal 0 0 1
    outer loop
      vertex 11.431 1.21209 4
      vertex 11.4236 1.19421 4
      vertex 12.1964 0.959799 4
    endloop
  endfacet
  facet normal 0 0 1
    outer loop
      vertex 11.431 1.21209 4
      vertex 10.7114 1.57488 4
      vertex 11.4236 1.19421 4
    endloop
  endfacet
  facet normal 0 0 1
    outer loop
      vertex 10.1009 2.10086 4
      vertex 10.7114 1.57488 4
      vertex 11.431 1.21209 4
    endloop
  endfacet
  facet normal 0 0 1
    outer loop
      vertex 10.1009 2.10086 4
      vertex 10.0872 2.08718 4
      vertex 10.7114 1.57488 4
    endloop
  endfacet
  facet normal 0 0 1
    outer loop
      vertex 10.1009 2.10086 4
      vertex 9.57488 2.71141 4
      vertex 10.0872 2.08718 4
    endloop
  endfacet
  facet normal 0 0 1
    outer loop
      vertex 9.21209 3.431 4
      vertex 9.57488 2.71141 4
      vertex 10.1009 2.10086 4
    endloop
  endfacet
  facet normal 0 0 1
    outer loop
      vertex 9.21209 3.431 4
      vertex 9.19421 3.42359 4
      vertex 9.57488 2.71141 4
    endloop
  endfacet
  facet normal 0 0 1
    outer loop
      vertex 9.21209 3.431 4
      vertex 8.9598 4.19635 4
      vertex 9.19421 3.42359 4
    endloop
  endfacet
  facet normal 0 0 1
    outer loop
      vertex 8.9 5 4
      vertex 8.9598 4.19635 4
      vertex 9.21209 3.431 4
    endloop
  endfacet
  facet normal 0 0 1
    outer loop
      vertex 8.9598 4.19635 4
      vertex 8.9 5 4
      vertex 8.88065 5 4
    endloop
  endfacet
  facet normal 0.195091 -0.980785 0
    outer loop
      vertex -13.8186 6.97635 0
      vertex -13.0307 7.13307 2.03918
      vertex -13.8186 6.97635 2.03918
    endloop
  endfacet
  facet normal 0.195091 -0.980785 -6.1168e-08
    outer loop
      vertex -13 7.13918 0
      vertex -13.0307 7.13307 2.03918
      vertex -13.8186 6.97635 0
    endloop
  endfacet
  facet normal 0.195095 -0.980784 0
    outer loop
      vertex -13.0307 7.13307 2.03918
      vertex -13 7.13918 0
      vertex -13 7.13918 2.03918
    endloop
  endfacet
  facet normal -0.980787 0.19508 0
    outer loop
      vertex -10.8608 5 0
      vertex -10.8669 4.96926 2.03918
      vertex -10.8608 5 2.03918
    endloop
  endfacet
  facet normal -0.980785 0.195091 1.68176e-07
    outer loop
      vertex -11.0237 4.18137 0
      vertex -10.8669 4.96926 2.03918
      vertex -10.8608 5 0
    endloop
  endfacet
  facet normal -0.980785 0.195092 -4.56197e-08
    outer loop
      vertex -10.8669 4.96926 2.03918
      vertex -11.0237 4.18137 0
      vertex -11.0237 4.18137 2.03918
    endloop
  endfacet
  facet normal 0.555579 0.831463 0
    outer loop
      vertex -13.8186 3.02365 2.03918
      vertex -13.8186 3.02365 0
      vertex -13.8447 3.04107 2.03918
    endloop
  endfacet
  facet normal 0.555571 0.831469 -1.63273e-07
    outer loop
      vertex -14 3.14484 0
      vertex -13.8447 3.04107 2.03918
      vertex -13.8186 3.02365 0
    endloop
  endfacet
  facet normal 0.55557 0.83147 -1.19318e-07
    outer loop
      vertex -13.8447 3.04107 2.03918
      vertex -14 3.14484 0
      vertex -14.5126 3.48737 2.03918
    endloop
  endfacet
  facet normal 0.555571 0.831469 0
    outer loop
      vertex -14.5126 3.48737 2.03918
      vertex -14 3.14484 0
      vertex -14.5126 3.48737 0
    endloop
  endfacet
  facet normal 0.980787 0.19508 0
    outer loop
      vertex -15.1331 4.96926 2.03918
      vertex -15.1392 5 0
      vertex -15.1392 5 2.03918
    endloop
  endfacet
  facet normal 0.980785 0.195092 -4.56197e-08
    outer loop
      vertex -14.9763 4.18137 0
      vertex -15.1331 4.96926 2.03918
      vertex -14.9763 4.18137 2.03918
    endloop
  endfacet
  facet normal 0.980785 0.195091 1.68176e-07
    outer loop
      vertex -15.1331 4.96926 2.03918
      vertex -14.9763 4.18137 0
      vertex -15.1392 5 0
    endloop
  endfacet
  facet normal -0.195091 0.980785 0
    outer loop
      vertex -12.1814 3.02365 0
      vertex -12.9693 2.86693 2.03918
      vertex -12.1814 3.02365 2.03918
    endloop
  endfacet
  facet normal -0.195091 0.980785 5.35041e-08
    outer loop
      vertex -13 2.86082 0
      vertex -12.9693 2.86693 2.03918
      vertex -12.1814 3.02365 0
    endloop
  endfacet
  facet normal -0.195088 0.980786 0
    outer loop
      vertex -12.9693 2.86693 2.03918
      vertex -13 2.86082 0
      vertex -13 2.86082 2.03918
    endloop
  endfacet
  facet normal 0.195088 0.980786 -0
    outer loop
      vertex -13 2.86082 0
      vertex -13.0307 2.86693 2.03918
      vertex -13 2.86082 2.03918
    endloop
  endfacet
  facet normal 0.195091 0.980785 5.35041e-08
    outer loop
      vertex -13.8186 3.02365 0
      vertex -13.0307 2.86693 2.03918
      vertex -13 2.86082 0
    endloop
  endfacet
  facet normal 0.195091 0.980785 0
    outer loop
      vertex -13.0307 2.86693 2.03918
      vertex -13.8186 3.02365 0
      vertex -13.8186 3.02365 2.03918
    endloop
  endfacet
  facet normal 0.831465 0.555578 0
    outer loop
      vertex -14.9589 4.15531 2.03918
      vertex -14.9763 4.18137 0
      vertex -14.9763 4.18137 2.03918
    endloop
  endfacet
  facet normal 0.83147 0.55557 -0
    outer loop
      vertex -14.5126 3.48737 0
      vertex -14.9589 4.15531 2.03918
      vertex -14.5126 3.48737 2.03918
    endloop
  endfacet
  facet normal 0.831469 0.555571 -1.31541e-07
    outer loop
      vertex -14.9589 4.15531 2.03918
      vertex -14.5126 3.48737 0
      vertex -14.9763 4.18137 0
    endloop
  endfacet
  facet normal -0.55557 0.83147 0
    outer loop
      vertex -11.4874 3.48737 0
      vertex -12.1553 3.04107 2.03918
      vertex -11.4874 3.48737 2.03918
    endloop
  endfacet
  facet normal -0.555571 0.831469 -1.6424e-07
    outer loop
      vertex -12.1814 3.02365 0
      vertex -12.1553 3.04107 2.03918
      vertex -11.4874 3.48737 0
    endloop
  endfacet
  facet normal -0.555579 0.831463 0
    outer loop
      vertex -12.1553 3.04107 2.03918
      vertex -12.1814 3.02365 0
      vertex -12.1814 3.02365 2.03918
    endloop
  endfacet
  facet normal -0.831465 0.555578 0
    outer loop
      vertex -11.0237 4.18137 0
      vertex -11.0411 4.15531 2.03918
      vertex -11.0237 4.18137 2.03918
    endloop
  endfacet
  facet normal -0.831469 0.555571 -1.31541e-07
    outer loop
      vertex -11.4874 3.48737 0
      vertex -11.0411 4.15531 2.03918
      vertex -11.0237 4.18137 0
    endloop
  endfacet
  facet normal -0.83147 0.55557 0
    outer loop
      vertex -11.0411 4.15531 2.03918
      vertex -11.4874 3.48737 0
      vertex -11.4874 3.48737 2.03918
    endloop
  endfacet
  facet normal -0.139281 0.700215 0.700214
    outer loop
      vertex -12.9693 2.86693 2.03918
      vertex -13 0.900001 4
      vertex -11.431 1.21209 4
    endloop
  endfacet
  facet normal -0.139279 0.700215 0.700215
    outer loop
      vertex -13 0.900001 4
      vertex -12.9693 2.86693 2.03918
      vertex -13 2.86082 2.03918
    endloop
  endfacet
  facet normal -0.700215 -0.139274 0.700215
    outer loop
      vertex -8.9 5 4
      vertex -10.8669 5.03074 2.03918
      vertex -10.8608 5 2.03918
    endloop
  endfacet
  facet normal -0.700215 -0.139281 0.700214
    outer loop
      vertex -10.8669 5.03074 2.03918
      vertex -8.9 5 4
      vertex -9.21209 6.569 4
    endloop
  endfacet
  facet normal -0.700214 -0.139282 0.700215
    outer loop
      vertex -10.8669 5.03074 2.03918
      vertex -9.21209 6.569 4
      vertex -11.0237 5.81863 2.03918
    endloop
  endfacet
  facet normal -0.700214 0.139282 0.700215
    outer loop
      vertex -9.21209 3.431 4
      vertex -10.8669 4.96926 2.03918
      vertex -11.0237 4.18137 2.03918
    endloop
  endfacet
  facet normal 0.700214 0.139282 0.700215
    outer loop
      vertex -14.9763 4.18137 2.03918
      vertex -15.1331 4.96926 2.03918
      vertex -16.7879 3.431 4
    endloop
  endfacet
  facet normal -0.59361 0.396645 0.700214
    outer loop
      vertex -11.0411 4.15531 2.03918
      vertex -9.21209 3.431 4
      vertex -11.0237 4.18137 2.03918
    endloop
  endfacet
  facet normal -0.593613 0.396639 0.700215
    outer loop
      vertex -9.21209 3.431 4
      vertex -11.0411 4.15531 2.03918
      vertex -10.1009 2.10086 4
    endloop
  endfacet
  facet normal -0.700215 0.139274 0.700215
    outer loop
      vertex -10.8669 4.96926 2.03918
      vertex -8.9 5 4
      vertex -10.8608 5 2.03918
    endloop
  endfacet
  facet normal -0.700215 0.139281 0.700214
    outer loop
      vertex -8.9 5 4
      vertex -10.8669 4.96926 2.03918
      vertex -9.21209 3.431 4
    endloop
  endfacet
  facet normal -0.396639 0.593613 0.700215
    outer loop
      vertex -12.1553 3.04107 2.03918
      vertex -11.431 1.21209 4
      vertex -10.1009 2.10086 4
    endloop
  endfacet
  facet normal -0.396647 0.593609 0.700214
    outer loop
      vertex -11.431 1.21209 4
      vertex -12.1553 3.04107 2.03918
      vertex -12.1814 3.02365 2.03918
    endloop
  endfacet
  facet normal -0.139281 0.700214 0.700215
    outer loop
      vertex -11.431 1.21209 4
      vertex -12.1814 3.02365 2.03918
      vertex -12.9693 2.86693 2.03918
    endloop
  endfacet
  facet normal 0.139285 -0.700214 0.700214
    outer loop
      vertex -13 9.1 4
      vertex -13.0307 7.13307 2.03918
      vertex -13 7.13918 2.03918
    endloop
  endfacet
  facet normal 0.139281 -0.700214 0.700215
    outer loop
      vertex -13.0307 7.13307 2.03918
      vertex -13 9.1 4
      vertex -14.569 8.78791 4
    endloop
  endfacet
  facet normal 0.39664 -0.593613 0.700215
    outer loop
      vertex -14.5126 6.51263 2.03918
      vertex -13.8447 6.95893 2.03918
      vertex -15.8991 7.89914 4
    endloop
  endfacet
  facet normal 0.700215 -0.139281 0.700214
    outer loop
      vertex -17.1 5 4
      vertex -15.1331 5.03074 2.03918
      vertex -16.7879 6.569 4
    endloop
  endfacet
  facet normal 0.700215 -0.139274 0.700215
    outer loop
      vertex -15.1331 5.03074 2.03918
      vertex -17.1 5 4
      vertex -15.1392 5 2.03918
    endloop
  endfacet
  facet normal -0.593613 0.39664 0.700215
    outer loop
      vertex -10.1009 2.10086 4
      vertex -11.0411 4.15531 2.03918
      vertex -11.4874 3.48737 2.03918
    endloop
  endfacet
  facet normal -0.39664 0.593613 0.700215
    outer loop
      vertex -10.1009 2.10086 4
      vertex -11.4874 3.48737 2.03918
      vertex -12.1553 3.04107 2.03918
    endloop
  endfacet
  facet normal 0.593613 0.39664 0.700215
    outer loop
      vertex -14.9763 4.18137 2.03918
      vertex -16.7879 3.431 4
      vertex -15.8991 2.10086 4
    endloop
  endfacet
  facet normal 0.593608 0.396644 0.700217
    outer loop
      vertex -14.9589 4.15531 2.03918
      vertex -14.9763 4.18137 2.03918
      vertex -15.8991 2.10086 4
    endloop
  endfacet
  facet normal 0.139281 0.700214 0.700215
    outer loop
      vertex -13.0307 2.86693 2.03918
      vertex -13.8186 3.02365 2.03918
      vertex -14.569 1.21209 4
    endloop
  endfacet
  facet normal 0.139279 0.700215 0.700215
    outer loop
      vertex -13.0307 2.86693 2.03918
      vertex -13 0.900001 4
      vertex -13 2.86082 2.03918
    endloop
  endfacet
  facet normal 0.139281 0.700215 0.700214
    outer loop
      vertex -13 0.900001 4
      vertex -13.0307 2.86693 2.03918
      vertex -14.569 1.21209 4
    endloop
  endfacet
  facet normal -0.139281 -0.700214 0.700215
    outer loop
      vertex -12.1814 6.97635 2.03918
      vertex -11.431 8.78791 4
      vertex -12.9693 7.13307 2.03918
    endloop
  endfacet
  facet normal 0.700215 0.139274 0.700215
    outer loop
      vertex -17.1 5 4
      vertex -15.1331 4.96926 2.03918
      vertex -15.1392 5 2.03918
    endloop
  endfacet
  facet normal 0.700215 0.139281 0.700214
    outer loop
      vertex -15.1331 4.96926 2.03918
      vertex -17.1 5 4
      vertex -16.7879 3.431 4
    endloop
  endfacet
  facet normal 0.396647 0.593609 0.700214
    outer loop
      vertex -13.8447 3.04107 2.03918
      vertex -14.569 1.21209 4
      vertex -13.8186 3.02365 2.03918
    endloop
  endfacet
  facet normal 0.396639 0.593613 0.700215
    outer loop
      vertex -14.569 1.21209 4
      vertex -13.8447 3.04107 2.03918
      vertex -15.8991 2.10086 4
    endloop
  endfacet
  facet normal 0.700214 -0.139282 0.700215
    outer loop
      vertex -15.1331 5.03074 2.03918
      vertex -14.9763 5.81863 2.03918
      vertex -16.7879 6.569 4
    endloop
  endfacet
  facet normal 0.593613 -0.39664 0.700215
    outer loop
      vertex -14.9589 5.84469 2.03918
      vertex -14.5126 6.51263 2.03918
      vertex -15.8991 7.89914 4
    endloop
  endfacet
  facet normal 0.593613 -0.39664 0.700215
    outer loop
      vertex -16.7879 6.569 4
      vertex -14.9589 5.84469 2.03918
      vertex -15.8991 7.89914 4
    endloop
  endfacet
  facet normal 0.59361 -0.396645 0.700214
    outer loop
      vertex -14.9589 5.84469 2.03918
      vertex -16.7879 6.569 4
      vertex -14.9763 5.81863 2.03918
    endloop
  endfacet
  facet normal 0.396643 -0.593612 0.700214
    outer loop
      vertex -14.569 8.78791 4
      vertex -13.8447 6.95893 2.03918
      vertex -13.8186 6.97635 2.03918
    endloop
  endfacet
  facet normal 0.39664 -0.593613 0.700215
    outer loop
      vertex -13.8447 6.95893 2.03918
      vertex -14.569 8.78791 4
      vertex -15.8991 7.89914 4
    endloop
  endfacet
  facet normal 0.139281 -0.700214 0.700215
    outer loop
      vertex -13.8186 6.97635 2.03918
      vertex -13.0307 7.13307 2.03918
      vertex -14.569 8.78791 4
    endloop
  endfacet
  facet normal -0.139281 -0.700214 0.700215
    outer loop
      vertex -13 9.1 4
      vertex -12.9693 7.13307 2.03918
      vertex -11.431 8.78791 4
    endloop
  endfacet
  facet normal -0.139285 -0.700214 0.700214
    outer loop
      vertex -12.9693 7.13307 2.03918
      vertex -13 9.1 4
      vertex -13 7.13918 2.03918
    endloop
  endfacet
  facet normal -0.59361 -0.396645 0.700214
    outer loop
      vertex -9.21209 6.569 4
      vertex -11.0411 5.84469 2.03918
      vertex -11.0237 5.81863 2.03918
    endloop
  endfacet
  facet normal -0.593613 -0.396639 0.700215
    outer loop
      vertex -11.0411 5.84469 2.03918
      vertex -9.21209 6.569 4
      vertex -10.1009 7.89914 4
    endloop
  endfacet
  facet normal -0.39664 -0.593613 0.700215
    outer loop
      vertex -11.431 8.78791 4
      vertex -12.1553 6.95893 2.03918
      vertex -10.1009 7.89914 4
    endloop
  endfacet
  facet normal -0.396643 -0.593612 0.700214
    outer loop
      vertex -12.1553 6.95893 2.03918
      vertex -11.431 8.78791 4
      vertex -12.1814 6.97635 2.03918
    endloop
  endfacet
  facet normal 0.39664 0.593613 0.700215
    outer loop
      vertex -13.8447 3.04107 2.03918
      vertex -14.5126 3.48737 2.03918
      vertex -15.8991 2.10086 4
    endloop
  endfacet
  facet normal 0.593613 0.39664 0.700215
    outer loop
      vertex -14.5126 3.48737 2.03918
      vertex -14.9589 4.15531 2.03918
      vertex -15.8991 2.10086 4
    endloop
  endfacet
  facet normal -0.593613 -0.39664 0.700215
    outer loop
      vertex -11.0411 5.84469 2.03918
      vertex -10.1009 7.89914 4
      vertex -11.4874 6.51263 2.03918
    endloop
  endfacet
  facet normal -0.39664 -0.593613 0.700215
    outer loop
      vertex -11.4874 6.51263 2.03918
      vertex -10.1009 7.89914 4
      vertex -12.1553 6.95893 2.03918
    endloop
  endfacet
  facet normal -0.980785 -0.195092 -4.56197e-08
    outer loop
      vertex 14.9763 5.81863 0
      vertex 15.1331 5.03074 2.03918
      vertex 14.9763 5.81863 2.03918
    endloop
  endfacet
  facet normal -0.980785 -0.195091 1.68176e-07
    outer loop
      vertex 15.1392 5 0
      vertex 15.1331 5.03074 2.03918
      vertex 14.9763 5.81863 0
    endloop
  endfacet
  facet normal -0.980787 -0.19508 0
    outer loop
      vertex 15.1331 5.03074 2.03918
      vertex 15.1392 5 0
      vertex 15.1392 5 2.03918
    endloop
  endfacet
  facet normal 0.980785 -0.195092 -4.56197e-08
    outer loop
      vertex 10.8669 5.03074 2.03918
      vertex 11.0237 5.81863 0
      vertex 11.0237 5.81863 2.03918
    endloop
  endfacet
  facet normal 0.980787 -0.19508 0
    outer loop
      vertex 10.8608 5 0
      vertex 10.8669 5.03074 2.03918
      vertex 10.8608 5 2.03918
    endloop
  endfacet
  facet normal 0.980785 -0.195091 1.68176e-07
    outer loop
      vertex 10.8669 5.03074 2.03918
      vertex 10.8608 5 0
      vertex 11.0237 5.81863 0
    endloop
  endfacet
  facet normal -0.195095 -0.980784 0
    outer loop
      vertex 13 7.13918 0
      vertex 13.0307 7.13307 2.03918
      vertex 13 7.13918 2.03918
    endloop
  endfacet
  facet normal -0.195091 -0.980785 -6.1168e-08
    outer loop
      vertex 13.8186 6.97635 0
      vertex 13.0307 7.13307 2.03918
      vertex 13 7.13918 0
    endloop
  endfacet
  facet normal -0.195091 -0.980785 0
    outer loop
      vertex 13.0307 7.13307 2.03918
      vertex 13.8186 6.97635 0
      vertex 13.8186 6.97635 2.03918
    endloop
  endfacet
  facet normal -0.555574 -0.831467 -0
    outer loop
      vertex 13.8186 6.97635 2.03918
      vertex 13.8186 6.97635 0
      vertex 13.8447 6.95893 2.03918
    endloop
  endfacet
  facet normal -0.555571 -0.831469 -6.60582e-08
    outer loop
      vertex 14 6.85516 0
      vertex 13.8447 6.95893 2.03918
      vertex 13.8186 6.97635 0
    endloop
  endfacet
  facet normal -0.55557 -0.83147 -4.47085e-08
    outer loop
      vertex 13.8447 6.95893 2.03918
      vertex 14 6.85516 0
      vertex 14.5126 6.51263 2.03918
    endloop
  endfacet
  facet normal -0.555571 -0.831469 -0
    outer loop
      vertex 14.5126 6.51263 2.03918
      vertex 14 6.85516 0
      vertex 14.5126 6.51263 0
    endloop
  endfacet
  facet normal -0.83147 -0.55557 0
    outer loop
      vertex 14.5126 6.51263 0
      vertex 14.9589 5.84469 2.03918
      vertex 14.5126 6.51263 2.03918
    endloop
  endfacet
  facet normal -0.831469 -0.555571 -1.31541e-07
    outer loop
      vertex 14.9763 5.81863 0
      vertex 14.9589 5.84469 2.03918
      vertex 14.5126 6.51263 0
    endloop
  endfacet
  facet normal -0.831465 -0.555578 0
    outer loop
      vertex 14.9589 5.84469 2.03918
      vertex 14.9763 5.81863 0
      vertex 14.9763 5.81863 2.03918
    endloop
  endfacet
  facet normal 0.55557 -0.83147 0
    outer loop
      vertex 11.4874 6.51263 0
      vertex 12.1553 6.95893 2.03918
      vertex 11.4874 6.51263 2.03918
    endloop
  endfacet
  facet normal 0.555571 -0.831469 -6.70254e-08
    outer loop
      vertex 12.1814 6.97635 0
      vertex 12.1553 6.95893 2.03918
      vertex 11.4874 6.51263 0
    endloop
  endfacet
  facet normal 0.555574 -0.831467 0
    outer loop
      vertex 12.1553 6.95893 2.03918
      vertex 12.1814 6.97635 0
      vertex 12.1814 6.97635 2.03918
    endloop
  endfacet
  facet normal 0.83147 -0.55557 0
    outer loop
      vertex 11.0411 5.84469 2.03918
      vertex 11.4874 6.51263 0
      vertex 11.4874 6.51263 2.03918
    endloop
  endfacet
  facet normal 0.831465 -0.555578 0
    outer loop
      vertex 11.0237 5.81863 0
      vertex 11.0411 5.84469 2.03918
      vertex 11.0237 5.81863 2.03918
    endloop
  endfacet
  facet normal 0.831469 -0.555571 -1.31541e-07
    outer loop
      vertex 11.0411 5.84469 2.03918
      vertex 11.0237 5.81863 0
      vertex 11.4874 6.51263 0
    endloop
  endfacet
  facet normal 0.195091 -0.980785 0
    outer loop
      vertex 12.1814 6.97635 0
      vertex 12.9693 7.13307 2.03918
      vertex 12.1814 6.97635 2.03918
    endloop
  endfacet
  facet normal 0.195091 -0.980785 -6.1168e-08
    outer loop
      vertex 13 7.13918 0
      vertex 12.9693 7.13307 2.03918
      vertex 12.1814 6.97635 0
    endloop
  endfacet
  facet normal 0.195095 -0.980784 0
    outer loop
      vertex 12.9693 7.13307 2.03918
      vertex 13 7.13918 0
      vertex 13 7.13918 2.03918
    endloop
  endfacet
  facet normal -0.980787 0.19508 0
    outer loop
      vertex 15.1392 5 0
      vertex 15.1331 4.96926 2.03918
      vertex 15.1392 5 2.03918
    endloop
  endfacet
  facet normal -0.980785 0.195091 1.68176e-07
    outer loop
      vertex 14.9763 4.18137 0
      vertex 15.1331 4.96926 2.03918
      vertex 15.1392 5 0
    endloop
  endfacet
  facet normal -0.980785 0.195092 -4.56197e-08
    outer loop
      vertex 15.1331 4.96926 2.03918
      vertex 14.9763 4.18137 0
      vertex 14.9763 4.18137 2.03918
    endloop
  endfacet
  facet normal 0.555579 0.831463 0
    outer loop
      vertex 12.1814 3.02365 2.03918
      vertex 12.1814 3.02365 0
      vertex 12.1553 3.04107 2.03918
    endloop
  endfacet
  facet normal 0.555571 0.831469 -1.6424e-07
    outer loop
      vertex 11.4874 3.48737 0
      vertex 12.1553 3.04107 2.03918
      vertex 12.1814 3.02365 0
    endloop
  endfacet
  facet normal 0.55557 0.83147 0
    outer loop
      vertex 12.1553 3.04107 2.03918
      vertex 11.4874 3.48737 0
      vertex 11.4874 3.48737 2.03918
    endloop
  endfacet
  facet normal 0.980787 0.19508 0
    outer loop
      vertex 10.8669 4.96926 2.03918
      vertex 10.8608 5 0
      vertex 10.8608 5 2.03918
    endloop
  endfacet
  facet normal 0.980785 0.195092 -4.56197e-08
    outer loop
      vertex 11.0237 4.18137 0
      vertex 10.8669 4.96926 2.03918
      vertex 11.0237 4.18137 2.03918
    endloop
  endfacet
  facet normal 0.980785 0.195091 1.68176e-07
    outer loop
      vertex 10.8669 4.96926 2.03918
      vertex 11.0237 4.18137 0
      vertex 10.8608 5 0
    endloop
  endfacet
  facet normal -0.195091 0.980785 0
    outer loop
      vertex 13.8186 3.02365 0
      vertex 13.0307 2.86693 2.03918
      vertex 13.8186 3.02365 2.03918
    endloop
  endfacet
  facet normal -0.195091 0.980785 5.35041e-08
    outer loop
      vertex 13 2.86082 0
      vertex 13.0307 2.86693 2.03918
      vertex 13.8186 3.02365 0
    endloop
  endfacet
  facet normal -0.195088 0.980786 0
    outer loop
      vertex 13.0307 2.86693 2.03918
      vertex 13 2.86082 0
      vertex 13 2.86082 2.03918
    endloop
  endfacet
  facet normal 0.195088 0.980786 -0
    outer loop
      vertex 13 2.86082 0
      vertex 12.9693 2.86693 2.03918
      vertex 13 2.86082 2.03918
    endloop
  endfacet
  facet normal 0.195091 0.980785 5.35041e-08
    outer loop
      vertex 12.1814 3.02365 0
      vertex 12.9693 2.86693 2.03918
      vertex 13 2.86082 0
    endloop
  endfacet
  facet normal 0.195091 0.980785 0
    outer loop
      vertex 12.9693 2.86693 2.03918
      vertex 12.1814 3.02365 0
      vertex 12.1814 3.02365 2.03918
    endloop
  endfacet
  facet normal 0.831465 0.555578 0
    outer loop
      vertex 11.0411 4.15531 2.03918
      vertex 11.0237 4.18137 0
      vertex 11.0237 4.18137 2.03918
    endloop
  endfacet
  facet normal 0.83147 0.55557 -0
    outer loop
      vertex 11.4874 3.48737 0
      vertex 11.0411 4.15531 2.03918
      vertex 11.4874 3.48737 2.03918
    endloop
  endfacet
  facet normal 0.831469 0.555571 -1.31541e-07
    outer loop
      vertex 11.0411 4.15531 2.03918
      vertex 11.4874 3.48737 0
      vertex 11.0237 4.18137 0
    endloop
  endfacet
  facet normal -0.555571 0.831469 0
    outer loop
      vertex 14 3.14484 0
      vertex 14.5126 3.48737 2.03918
      vertex 14.5126 3.48737 0
    endloop
  endfacet
  facet normal -0.55557 0.83147 -1.19318e-07
    outer loop
      vertex 14.5126 3.48737 2.03918
      vertex 14 3.14484 0
      vertex 13.8447 3.04107 2.03918
    endloop
  endfacet
  facet normal -0.555571 0.831469 -1.63273e-07
    outer loop
      vertex 13.8186 3.02365 0
      vertex 13.8447 3.04107 2.03918
      vertex 14 3.14484 0
    endloop
  endfacet
  facet normal -0.555579 0.831463 0
    outer loop
      vertex 13.8447 3.04107 2.03918
      vertex 13.8186 3.02365 0
      vertex 13.8186 3.02365 2.03918
    endloop
  endfacet
  facet normal -0.831465 0.555578 0
    outer loop
      vertex 14.9763 4.18137 0
      vertex 14.9589 4.15531 2.03918
      vertex 14.9763 4.18137 2.03918
    endloop
  endfacet
  facet normal -0.831469 0.555571 -1.31541e-07
    outer loop
      vertex 14.5126 3.48737 0
      vertex 14.9589 4.15531 2.03918
      vertex 14.9763 4.18137 0
    endloop
  endfacet
  facet normal -0.83147 0.55557 0
    outer loop
      vertex 14.9589 4.15531 2.03918
      vertex 14.5126 3.48737 0
      vertex 14.5126 3.48737 2.03918
    endloop
  endfacet
  facet normal -0.139281 0.700215 0.700214
    outer loop
      vertex 13.0307 2.86693 2.03918
      vertex 13 0.900001 4
      vertex 14.569 1.21209 4
    endloop
  endfacet
  facet normal -0.139279 0.700215 0.700215
    outer loop
      vertex 13 0.900001 4
      vertex 13.0307 2.86693 2.03918
      vertex 13 2.86082 2.03918
    endloop
  endfacet
  facet normal -0.700215 -0.139274 0.700215
    outer loop
      vertex 17.1 5 4
      vertex 15.1331 5.03074 2.03918
      vertex 15.1392 5 2.03918
    endloop
  endfacet
  facet normal -0.700215 -0.139281 0.700214
    outer loop
      vertex 15.1331 5.03074 2.03918
      vertex 17.1 5 4
      vertex 16.7879 6.569 4
    endloop
  endfacet
  facet normal -0.700214 -0.139282 0.700215
    outer loop
      vertex 15.1331 5.03074 2.03918
      vertex 16.7879 6.569 4
      vertex 14.9763 5.81863 2.03918
    endloop
  endfacet
  facet normal -0.700214 0.139282 0.700215
    outer loop
      vertex 16.7879 3.431 4
      vertex 15.1331 4.96926 2.03918
      vertex 14.9763 4.18137 2.03918
    endloop
  endfacet
  facet normal 0.700214 0.139282 0.700215
    outer loop
      vertex 11.0237 4.18137 2.03918
      vertex 10.8669 4.96926 2.03918
      vertex 9.21209 3.431 4
    endloop
  endfacet
  facet normal -0.59361 0.396645 0.700214
    outer loop
      vertex 14.9589 4.15531 2.03918
      vertex 16.7879 3.431 4
      vertex 14.9763 4.18137 2.03918
    endloop
  endfacet
  facet normal -0.593613 0.39664 0.700215
    outer loop
      vertex 16.7879 3.431 4
      vertex 14.9589 4.15531 2.03918
      vertex 15.8991 2.10086 4
    endloop
  endfacet
  facet normal -0.700215 0.139274 0.700215
    outer loop
      vertex 15.1331 4.96926 2.03918
      vertex 17.1 5 4
      vertex 15.1392 5 2.03918
    endloop
  endfacet
  facet normal -0.700215 0.139281 0.700214
    outer loop
      vertex 17.1 5 4
      vertex 15.1331 4.96926 2.03918
      vertex 16.7879 3.431 4
    endloop
  endfacet
  facet normal -0.396639 0.593613 0.700215
    outer loop
      vertex 13.8447 3.04107 2.03918
      vertex 14.569 1.21209 4
      vertex 15.8991 2.10086 4
    endloop
  endfacet
  facet normal -0.396647 0.593609 0.700214
    outer loop
      vertex 14.569 1.21209 4
      vertex 13.8447 3.04107 2.03918
      vertex 13.8186 3.02365 2.03918
    endloop
  endfacet
  facet normal -0.139281 0.700214 0.700215
    outer loop
      vertex 14.569 1.21209 4
      vertex 13.8186 3.02365 2.03918
      vertex 13.0307 2.86693 2.03918
    endloop
  endfacet
  facet normal 0.139285 -0.700214 0.700214
    outer loop
      vertex 13 9.1 4
      vertex 12.9693 7.13307 2.03918
      vertex 13 7.13918 2.03918
    endloop
  endfacet
  facet normal 0.139281 -0.700214 0.700215
    outer loop
      vertex 12.9693 7.13307 2.03918
      vertex 13 9.1 4
      vertex 11.431 8.78791 4
    endloop
  endfacet
  facet normal 0.39664 -0.593613 0.700215
    outer loop
      vertex 11.4874 6.51263 2.03918
      vertex 12.1553 6.95893 2.03918
      vertex 10.1009 7.89914 4
    endloop
  endfacet
  facet normal 0.700215 -0.139281 0.700214
    outer loop
      vertex 8.9 5 4
      vertex 10.8669 5.03074 2.03918
      vertex 9.21209 6.569 4
    endloop
  endfacet
  facet normal 0.700215 -0.139274 0.700215
    outer loop
      vertex 10.8669 5.03074 2.03918
      vertex 8.9 5 4
      vertex 10.8608 5 2.03918
    endloop
  endfacet
  facet normal -0.593613 0.39664 0.700215
    outer loop
      vertex 15.8991 2.10086 4
      vertex 14.9589 4.15531 2.03918
      vertex 14.5126 3.48737 2.03918
    endloop
  endfacet
  facet normal -0.39664 0.593613 0.700215
    outer loop
      vertex 15.8991 2.10086 4
      vertex 14.5126 3.48737 2.03918
      vertex 13.8447 3.04107 2.03918
    endloop
  endfacet
  facet normal 0.593613 0.39664 0.700215
    outer loop
      vertex 11.0237 4.18137 2.03918
      vertex 9.21209 3.431 4
      vertex 10.1009 2.10086 4
    endloop
  endfacet
  facet normal 0.593608 0.396644 0.700217
    outer loop
      vertex 11.0411 4.15531 2.03918
      vertex 11.0237 4.18137 2.03918
      vertex 10.1009 2.10086 4
    endloop
  endfacet
  facet normal 0.139281 0.700214 0.700215
    outer loop
      vertex 12.9693 2.86693 2.03918
      vertex 12.1814 3.02365 2.03918
      vertex 11.431 1.21209 4
    endloop
  endfacet
  facet normal 0.139279 0.700215 0.700215
    outer loop
      vertex 12.9693 2.86693 2.03918
      vertex 13 0.900001 4
      vertex 13 2.86082 2.03918
    endloop
  endfacet
  facet normal 0.139281 0.700215 0.700214
    outer loop
      vertex 13 0.900001 4
      vertex 12.9693 2.86693 2.03918
      vertex 11.431 1.21209 4
    endloop
  endfacet
  facet normal -0.139281 -0.700214 0.700215
    outer loop
      vertex 13.8186 6.97635 2.03918
      vertex 14.569 8.78791 4
      vertex 13.0307 7.13307 2.03918
    endloop
  endfacet
  facet normal 0.700215 0.139274 0.700215
    outer loop
      vertex 8.9 5 4
      vertex 10.8669 4.96926 2.03918
      vertex 10.8608 5 2.03918
    endloop
  endfacet
  facet normal 0.700215 0.139281 0.700214
    outer loop
      vertex 10.8669 4.96926 2.03918
      vertex 8.9 5 4
      vertex 9.21209 3.431 4
    endloop
  endfacet
  facet normal 0.396647 0.593609 0.700214
    outer loop
      vertex 12.1553 3.04107 2.03918
      vertex 11.431 1.21209 4
      vertex 12.1814 3.02365 2.03918
    endloop
  endfacet
  facet normal 0.396639 0.593613 0.700215
    outer loop
      vertex 11.431 1.21209 4
      vertex 12.1553 3.04107 2.03918
      vertex 10.1009 2.10086 4
    endloop
  endfacet
  facet normal 0.700214 -0.139282 0.700215
    outer loop
      vertex 10.8669 5.03074 2.03918
      vertex 11.0237 5.81863 2.03918
      vertex 9.21209 6.569 4
    endloop
  endfacet
  facet normal 0.593613 -0.39664 0.700215
    outer loop
      vertex 11.0411 5.84469 2.03918
      vertex 11.4874 6.51263 2.03918
      vertex 10.1009 7.89914 4
    endloop
  endfacet
  facet normal 0.593613 -0.396639 0.700215
    outer loop
      vertex 9.21209 6.569 4
      vertex 11.0411 5.84469 2.03918
      vertex 10.1009 7.89914 4
    endloop
  endfacet
  facet normal 0.59361 -0.396645 0.700214
    outer loop
      vertex 11.0411 5.84469 2.03918
      vertex 9.21209 6.569 4
      vertex 11.0237 5.81863 2.03918
    endloop
  endfacet
  facet normal 0.396643 -0.593612 0.700214
    outer loop
      vertex 11.431 8.78791 4
      vertex 12.1553 6.95893 2.03918
      vertex 12.1814 6.97635 2.03918
    endloop
  endfacet
  facet normal 0.39664 -0.593613 0.700215
    outer loop
      vertex 12.1553 6.95893 2.03918
      vertex 11.431 8.78791 4
      vertex 10.1009 7.89914 4
    endloop
  endfacet
  facet normal 0.139281 -0.700214 0.700215
    outer loop
      vertex 12.1814 6.97635 2.03918
      vertex 12.9693 7.13307 2.03918
      vertex 11.431 8.78791 4
    endloop
  endfacet
  facet normal -0.139281 -0.700214 0.700215
    outer loop
      vertex 13 9.1 4
      vertex 13.0307 7.13307 2.03918
      vertex 14.569 8.78791 4
    endloop
  endfacet
  facet normal -0.139285 -0.700214 0.700214
    outer loop
      vertex 13.0307 7.13307 2.03918
      vertex 13 9.1 4
      vertex 13 7.13918 2.03918
    endloop
  endfacet
  facet normal -0.59361 -0.396645 0.700214
    outer loop
      vertex 16.7879 6.569 4
      vertex 14.9589 5.84469 2.03918
      vertex 14.9763 5.81863 2.03918
    endloop
  endfacet
  facet normal -0.593613 -0.39664 0.700215
    outer loop
      vertex 14.9589 5.84469 2.03918
      vertex 16.7879 6.569 4
      vertex 15.8991 7.89914 4
    endloop
  endfacet
  facet normal -0.39664 -0.593613 0.700215
    outer loop
      vertex 14.569 8.78791 4
      vertex 13.8447 6.95893 2.03918
      vertex 15.8991 7.89914 4
    endloop
  endfacet
  facet normal -0.396643 -0.593612 0.700214
    outer loop
      vertex 13.8447 6.95893 2.03918
      vertex 14.569 8.78791 4
      vertex 13.8186 6.97635 2.03918
    endloop
  endfacet
  facet normal 0.39664 0.593613 0.700215
    outer loop
      vertex 12.1553 3.04107 2.03918
      vertex 11.4874 3.48737 2.03918
      vertex 10.1009 2.10086 4
    endloop
  endfacet
  facet normal 0.593613 0.39664 0.700215
    outer loop
      vertex 11.4874 3.48737 2.03918
      vertex 11.0411 4.15531 2.03918
      vertex 10.1009 2.10086 4
    endloop
  endfacet
  facet normal -0.593613 -0.39664 0.700215
    outer loop
      vertex 14.9589 5.84469 2.03918
      vertex 15.8991 7.89914 4
      vertex 14.5126 6.51263 2.03918
    endloop
  endfacet
  facet normal -0.39664 -0.593613 0.700215
    outer loop
      vertex 14.5126 6.51263 2.03918
      vertex 15.8991 7.89914 4
      vertex 13.8447 6.95893 2.03918
    endloop
  endfacet
  facet normal -1 0 0
    outer loop
      vertex -18 0 0
      vertex -18 10 4
      vertex -18 10 0
    endloop
  endfacet
  facet normal -1 -0 0
    outer loop
      vertex -18 10 4
      vertex -18 0 0
      vertex -18 0 4
    endloop
  endfacet
  facet normal 1 -0 0
    outer loop
      vertex 18 0 4
      vertex 18 10 0
      vertex 18 10 4
    endloop
  endfacet
  facet normal 1 0 0
    outer loop
      vertex 18 10 0
      vertex 18 0 4
      vertex 18 0 0
    endloop
  endfacet
  facet normal 0 -1 0
    outer loop
      vertex -14 0 0
      vertex -18 0 4
      vertex -18 0 0
    endloop
  endfacet
  facet normal 0 -1 0
    outer loop
      vertex -1.59899 0 22.8603
      vertex -0.964293 0 26.9417
      vertex -2.83684 0 26.4801
    endloop
  endfacet
  facet normal 0 -1 0
    outer loop
      vertex -0.964293 0 26.9417
      vertex 0 0 23.1784
      vertex 0.964293 0 26.9417
    endloop
  endfacet
  facet normal 0 -1 0
    outer loop
      vertex -1.59899 0 22.8603
      vertex -2.83684 0 26.4801
      vertex -4.54452 0 25.5839
    endloop
  endfacet
  facet normal 0 -1 0
    outer loop
      vertex 1.59899 0 22.8603
      vertex 0.964293 0 26.9417
      vertex 0 0 23.1784
    endloop
  endfacet
  facet normal 0 -1 0
    outer loop
      vertex -2.95455 0 21.9545
      vertex -4.54452 0 25.5839
      vertex -5.98809 0 24.305
    endloop
  endfacet
  facet normal 0 -1 0
    outer loop
      vertex 0.964293 0 26.9417
      vertex 1.59899 0 22.8603
      vertex 2.83684 0 26.4801
    endloop
  endfacet
  facet normal 0 -1 -0
    outer loop
      vertex 2.83684 0 26.4801
      vertex 1.59899 0 22.8603
      vertex 4.54452 0 25.5839
    endloop
  endfacet
  facet normal 0 -1 -0
    outer loop
      vertex -0.964293 0 26.9417
      vertex -1.59899 0 22.8603
      vertex 0 0 23.1784
    endloop
  endfacet
  facet normal 0 -1 0
    outer loop
      vertex -2.95455 0 21.9545
      vertex -5.98809 0 24.305
      vertex -7.08365 0 22.7178
    endloop
  endfacet
  facet normal 0 -1 0
    outer loop
      vertex -4.54452 0 25.5839
      vertex -2.95455 0 21.9545
      vertex -1.59899 0 22.8603
    endloop
  endfacet
  facet normal 0 -1 0
    outer loop
      vertex -3.8603 0 20.599
      vertex -7.08365 0 22.7178
      vertex -7.76753 0 20.9145
    endloop
  endfacet
  facet normal 0 -1 0
    outer loop
      vertex -7.08365 0 22.7178
      vertex -3.8603 0 20.599
      vertex -2.95455 0 21.9545
    endloop
  endfacet
  facet normal 0 -1 0
    outer loop
      vertex -4.17836 0 19
      vertex -7.76753 0 20.9145
      vertex -8 0 19
    endloop
  endfacet
  facet normal 0 -1 0
    outer loop
      vertex -7.76753 0 20.9145
      vertex -4.17836 0 19
      vertex -3.8603 0 20.599
    endloop
  endfacet
  facet normal 0 -1 0
    outer loop
      vertex -8 0 4
      vertex -4.17836 0 19
      vertex -8 0 19
    endloop
  endfacet
  facet normal 0 -1 0
    outer loop
      vertex -18 0 4
      vertex -14 0 0
      vertex -8 0 4
    endloop
  endfacet
  facet normal 0 -1 0
    outer loop
      vertex -8 0 4
      vertex -4.17836 0 0
      vertex -4.17836 0 19
    endloop
  endfacet
  facet normal 0 -1 0
    outer loop
      vertex -4.17836 0 0
      vertex -8 0 4
      vertex -14 0 0
    endloop
  endfacet
  facet normal 0 -1 0
    outer loop
      vertex 2.95455 0 21.9545
      vertex 4.54452 0 25.5839
      vertex 1.59899 0 22.8603
    endloop
  endfacet
  facet normal 0 -1 -0
    outer loop
      vertex 4.54452 0 25.5839
      vertex 2.95455 0 21.9545
      vertex 5.98809 0 24.305
    endloop
  endfacet
  facet normal 0 -1 -0
    outer loop
      vertex 5.98809 0 24.305
      vertex 2.95455 0 21.9545
      vertex 7.08365 0 22.7178
    endloop
  endfacet
  facet normal 0 -1 0
    outer loop
      vertex 3.8603 0 20.599
      vertex 7.08365 0 22.7178
      vertex 2.95455 0 21.9545
    endloop
  endfacet
  facet normal 0 -1 -0
    outer loop
      vertex 7.08365 0 22.7178
      vertex 3.8603 0 20.599
      vertex 7.76753 0 20.9145
    endloop
  endfacet
  facet normal 0 -1 0
    outer loop
      vertex 4.17836 0 19
      vertex 7.76753 0 20.9145
      vertex 3.8603 0 20.599
    endloop
  endfacet
  facet normal 0 -1 0
    outer loop
      vertex 4.17836 0 19
      vertex 8 0 19
      vertex 7.76753 0 20.9145
    endloop
  endfacet
  facet normal 0 -1 0
    outer loop
      vertex 4.17836 0 19
      vertex 8 0 4
      vertex 8 0 19
    endloop
  endfacet
  facet normal 0 -1 0
    outer loop
      vertex 4.17836 0 0
      vertex 8 0 4
      vertex 4.17836 0 19
    endloop
  endfacet
  facet normal 0 -1 0
    outer loop
      vertex 14 0 0
      vertex 8 0 4
      vertex 4.17836 0 0
    endloop
  endfacet
  facet normal 0 -1 0
    outer loop
      vertex 8 0 4
      vertex 14 0 0
      vertex 18 0 4
    endloop
  endfacet
  facet normal 0 -1 -0
    outer loop
      vertex 18 0 4
      vertex 14 0 0
      vertex 18 0 0
    endloop
  endfacet
  facet normal 0 1 -0
    outer loop
      vertex -2.95455 10 21.9545
      vertex -7.08365 10 22.7178
      vertex -1.81229 10 22.7178
    endloop
  endfacet
  facet normal 0 1 -0
    outer loop
      vertex -3.8603 10 20.599
      vertex -7.08365 10 22.7178
      vertex -2.95455 10 21.9545
    endloop
  endfacet
  facet normal 0 1 0
    outer loop
      vertex -7.08365 10 22.7178
      vertex -3.8603 10 20.599
      vertex -7.76753 10 20.9145
    endloop
  endfacet
  facet normal 0 1 -0
    outer loop
      vertex -4.17836 10 19
      vertex -7.76753 10 20.9145
      vertex -3.8603 10 20.599
    endloop
  endfacet
  facet normal 0 1 0
    outer loop
      vertex -4.17836 10 19
      vertex -8 10 19
      vertex -7.76753 10 20.9145
    endloop
  endfacet
  facet normal 0 1 0
    outer loop
      vertex -4.17836 10 19
      vertex -8 10 4
      vertex -8 10 19
    endloop
  endfacet
  facet normal 0 1 -0
    outer loop
      vertex -4.17836 10 0
      vertex -8 10 4
      vertex -4.17836 10 19
    endloop
  endfacet
  facet normal 0 1 0
    outer loop
      vertex -14 10 0
      vertex -8 10 4
      vertex -4.17836 10 0
    endloop
  endfacet
  facet normal 0 1 0
    outer loop
      vertex -8 10 4
      vertex -14 10 0
      vertex -18 10 4
    endloop
  endfacet
  facet normal 0 1 0
    outer loop
      vertex -18 10 4
      vertex -14 10 0
      vertex -18 10 0
    endloop
  endfacet
  facet normal 0 1 0
    outer loop
      vertex 14 10 0
      vertex 18 10 4
      vertex 18 10 0
    endloop
  endfacet
  facet normal 0 1 0
    outer loop
      vertex 7.08365 10 22.7178
      vertex 2.95455 10 21.9545
      vertex 1.81229 10 22.7178
    endloop
  endfacet
  facet normal 0 1 0
    outer loop
      vertex 3.8603 10 20.599
      vertex 7.08365 10 22.7178
      vertex 7.76753 10 20.9145
    endloop
  endfacet
  facet normal 0 1 0
    outer loop
      vertex 7.08365 10 22.7178
      vertex 3.8603 10 20.599
      vertex 2.95455 10 21.9545
    endloop
  endfacet
  facet normal 0 1 0
    outer loop
      vertex 4.17836 10 19
      vertex 7.76753 10 20.9145
      vertex 8 10 19
    endloop
  endfacet
  facet normal 0 1 0
    outer loop
      vertex 7.76753 10 20.9145
      vertex 4.17836 10 19
      vertex 3.8603 10 20.599
    endloop
  endfacet
  facet normal 0 1 -0
    outer loop
      vertex 8 10 4
      vertex 4.17836 10 19
      vertex 8 10 19
    endloop
  endfacet
  facet normal 0 1 0
    outer loop
      vertex 18 10 4
      vertex 14 10 0
      vertex 8 10 4
    endloop
  endfacet
  facet normal 0 1 0
    outer loop
      vertex 8 10 4
      vertex 4.17836 10 0
      vertex 4.17836 10 19
    endloop
  endfacet
  facet normal 0 1 0
    outer loop
      vertex 4.17836 10 0
      vertex 8 10 4
      vertex 14 10 0
    endloop
  endfacet
  facet normal 0.822984 -0 0.568065
    outer loop
      vertex 5.98809 0 24.305
      vertex 7.08365 10 22.7178
      vertex 5.98809 10 24.305
    endloop
  endfacet
  facet normal 0.822984 0 0.568065
    outer loop
      vertex 7.08365 10 22.7178
      vertex 5.98809 0 24.305
      vertex 7.08365 0 22.7178
    endloop
  endfacet
  facet normal 1 -0 0
    outer loop
      vertex 8 0 19
      vertex 8 10 4
      vertex 8 10 19
    endloop
  endfacet
  facet normal 1 0 0
    outer loop
      vertex 8 10 4
      vertex 8 0 19
      vertex 8 0 4
    endloop
  endfacet
  facet normal 0.935016 -0 0.354605
    outer loop
      vertex 7.08365 0 22.7178
      vertex 7.76753 10 20.9145
      vertex 7.08365 10 22.7178
    endloop
  endfacet
  facet normal 0.935016 0 0.354605
    outer loop
      vertex 7.76753 10 20.9145
      vertex 7.08365 0 22.7178
      vertex 7.76753 0 20.9145
    endloop
  endfacet
  facet normal -0 0 1
    outer loop
      vertex -0.964293 10 26.9417
      vertex 0.964293 0 26.9417
      vertex 0.964293 10 26.9417
    endloop
  endfacet
  facet normal 0 0 1
    outer loop
      vertex 0.964293 0 26.9417
      vertex -0.964293 10 26.9417
      vertex -0.964293 0 26.9417
    endloop
  endfacet
  facet normal -1 0 0
    outer loop
      vertex -8 0 4
      vertex -8 10 19
      vertex -8 10 4
    endloop
  endfacet
  facet normal -1 -0 0
    outer loop
      vertex -8 10 19
      vertex -8 0 4
      vertex -8 0 19
    endloop
  endfacet
  facet normal 1.37019e-06 1 1.54663e-06
    outer loop
      vertex 7.08365 10 22.7178
      vertex 4.54452 10 25.5839
      vertex 5.98809 10 24.305
    endloop
  endfacet
  facet normal -0.935016 0 0.354605
    outer loop
      vertex -7.76753 0 20.9145
      vertex -7.08365 10 22.7178
      vertex -7.76753 10 20.9145
    endloop
  endfacet
  facet normal -0.935016 0 0.354605
    outer loop
      vertex -7.08365 10 22.7178
      vertex -7.76753 0 20.9145
      vertex -7.08365 0 22.7178
    endloop
  endfacet
  facet normal -0.992709 0 0.120537
    outer loop
      vertex -8 0 19
      vertex -7.76753 10 20.9145
      vertex -8 10 19
    endloop
  endfacet
  facet normal -0.992709 0 0.120537
    outer loop
      vertex -7.76753 10 20.9145
      vertex -8 0 19
      vertex -7.76753 0 20.9145
    endloop
  endfacet
  facet normal 0.992709 -0 0.120537
    outer loop
      vertex 7.76753 0 20.9145
      vertex 8 10 19
      vertex 7.76753 10 20.9145
    endloop
  endfacet
  facet normal 0.992709 0 0.120537
    outer loop
      vertex 8 10 19
      vertex 7.76753 0 20.9145
      vertex 8 0 19
    endloop
  endfacet
  facet normal 0 1 2.53414e-07
    outer loop
      vertex 0.964293 10 26.9417
      vertex 0 10 23.1784
      vertex -0.964293 10 26.9417
    endloop
  endfacet
  facet normal 4.79625e-08 1 2.41124e-07
    outer loop
      vertex 0.964293 10 26.9417
      vertex 1.59899 10 22.8603
      vertex 0 10 23.1784
    endloop
  endfacet
  facet normal -0 1 2.25781e-07
    outer loop
      vertex 1.81229 10 22.7178
      vertex 0.964293 10 26.9417
      vertex 7.08365 10 22.7178
    endloop
  endfacet
  facet normal 1.74236e-07 1 2.60761e-07
    outer loop
      vertex 0.964293 10 26.9417
      vertex 1.81229 10 22.7178
      vertex 1.59899 10 22.8603
    endloop
  endfacet
  facet normal -4.79625e-08 1 2.41124e-07
    outer loop
      vertex -1.59899 10 22.8603
      vertex -0.964293 10 26.9417
      vertex 0 10 23.1784
    endloop
  endfacet
  facet normal -1.74236e-07 1 2.60761e-07
    outer loop
      vertex -1.81229 10 22.7178
      vertex -0.964293 10 26.9417
      vertex -1.59899 10 22.8603
    endloop
  endfacet
  facet normal 0 1 2.25781e-07
    outer loop
      vertex -0.964293 10 26.9417
      vertex -1.81229 10 22.7178
      vertex -7.08365 10 22.7178
    endloop
  endfacet
  facet normal 8.65587e-08 1 3.51183e-07
    outer loop
      vertex 7.08365 10 22.7178
      vertex 0.964293 10 26.9417
      vertex 2.83684 10 26.4801
    endloop
  endfacet
  facet normal -3.26407e-07 1 6.21916e-07
    outer loop
      vertex -2.83684 10 26.4801
      vertex -7.08365 10 22.7178
      vertex -4.54452 10 25.5839
    endloop
  endfacet
  facet normal 0.663122 0 0.748511
    outer loop
      vertex 4.54452 10 25.5839
      vertex 5.98809 0 24.305
      vertex 5.98809 10 24.305
    endloop
  endfacet
  facet normal 0.663122 0 0.748511
    outer loop
      vertex 5.98809 0 24.305
      vertex 4.54452 10 25.5839
      vertex 4.54452 0 25.5839
    endloop
  endfacet
  facet normal 0.239315 0 0.970942
    outer loop
      vertex 0.964293 10 26.9417
      vertex 2.83684 0 26.4801
      vertex 2.83684 10 26.4801
    endloop
  endfacet
  facet normal 0.239315 0 0.970942
    outer loop
      vertex 2.83684 0 26.4801
      vertex 0.964293 10 26.9417
      vertex 0.964293 0 26.9417
    endloop
  endfacet
  facet normal -8.65587e-08 1 3.51183e-07
    outer loop
      vertex -0.964293 10 26.9417
      vertex -7.08365 10 22.7178
      vertex -2.83684 10 26.4801
    endloop
  endfacet
  facet normal 0.464723 0 0.885456
    outer loop
      vertex 2.83684 10 26.4801
      vertex 4.54452 0 25.5839
      vertex 4.54452 10 25.5839
    endloop
  endfacet
  facet normal 0.464723 0 0.885456
    outer loop
      vertex 4.54452 0 25.5839
      vertex 2.83684 10 26.4801
      vertex 2.83684 0 26.4801
    endloop
  endfacet
  facet normal -0.663122 0 0.748511
    outer loop
      vertex -5.98809 10 24.305
      vertex -4.54452 0 25.5839
      vertex -4.54452 10 25.5839
    endloop
  endfacet
  facet normal -0.663122 0 0.748511
    outer loop
      vertex -4.54452 0 25.5839
      vertex -5.98809 10 24.305
      vertex -5.98809 0 24.305
    endloop
  endfacet
  facet normal -1.37019e-06 1 1.54663e-06
    outer loop
      vertex -4.54452 10 25.5839
      vertex -7.08365 10 22.7178
      vertex -5.98809 10 24.305
    endloop
  endfacet
  facet normal -0.822984 0 0.568065
    outer loop
      vertex -7.08365 0 22.7178
      vertex -5.98809 10 24.305
      vertex -7.08365 10 22.7178
    endloop
  endfacet
  facet normal -0.822984 0 0.568065
    outer loop
      vertex -5.98809 10 24.305
      vertex -7.08365 0 22.7178
      vertex -5.98809 0 24.305
    endloop
  endfacet
  facet normal 3.26407e-07 1 6.21916e-07
    outer loop
      vertex 7.08365 10 22.7178
      vertex 2.83684 10 26.4801
      vertex 4.54452 10 25.5839
    endloop
  endfacet
  facet normal -0.239315 0 0.970942
    outer loop
      vertex -2.83684 10 26.4801
      vertex -0.964293 0 26.9417
      vertex -0.964293 10 26.9417
    endloop
  endfacet
  facet normal -0.239315 0 0.970942
    outer loop
      vertex -0.964293 0 26.9417
      vertex -2.83684 10 26.4801
      vertex -2.83684 0 26.4801
    endloop
  endfacet
  facet normal -0.464723 0 0.885456
    outer loop
      vertex -4.54452 10 25.5839
      vertex -2.83684 0 26.4801
      vertex -2.83684 10 26.4801
    endloop
  endfacet
  facet normal -0.464723 0 0.885456
    outer loop
      vertex -2.83684 0 26.4801
      vertex -4.54452 10 25.5839
      vertex -4.54452 0 25.5839
    endloop
  endfacet
  facet normal -0.980785 0 -0.19509
    outer loop
      vertex 4.17836 0 19
      vertex 3.8603 10 20.599
      vertex 4.17836 10 19
    endloop
  endfacet
  facet normal -0.980785 -0 -0.19509
    outer loop
      vertex 3.8603 10 20.599
      vertex 4.17836 0 19
      vertex 3.8603 0 20.599
    endloop
  endfacet
  facet normal 0.83147 0 -0.55557
    outer loop
      vertex -2.95455 0 21.9545
      vertex -3.8603 10 20.599
      vertex -2.95455 10 21.9545
    endloop
  endfacet
  facet normal 0.83147 0 -0.55557
    outer loop
      vertex -3.8603 10 20.599
      vertex -2.95455 0 21.9545
      vertex -3.8603 0 20.599
    endloop
  endfacet
  facet normal -0.83147 0 -0.55557
    outer loop
      vertex 3.8603 0 20.599
      vertex 2.95455 10 21.9545
      vertex 3.8603 10 20.599
    endloop
  endfacet
  facet normal -0.83147 -0 -0.55557
    outer loop
      vertex 2.95455 10 21.9545
      vertex 3.8603 0 20.599
      vertex 2.95455 0 21.9545
    endloop
  endfacet
  facet normal -1 0 0
    outer loop
      vertex 4.17836 0 0
      vertex 4.17836 10 19
      vertex 4.17836 10 0
    endloop
  endfacet
  facet normal -1 -0 0
    outer loop
      vertex 4.17836 10 19
      vertex 4.17836 0 0
      vertex 4.17836 0 19
    endloop
  endfacet
  facet normal 1 -0 0
    outer loop
      vertex -4.17836 0 19
      vertex -4.17836 10 0
      vertex -4.17836 10 19
    endloop
  endfacet
  facet normal 1 0 0
    outer loop
      vertex -4.17836 10 0
      vertex -4.17836 0 19
      vertex -4.17836 0 0
    endloop
  endfacet
  facet normal 0.980785 0 -0.19509
    outer loop
      vertex -3.8603 0 20.599
      vertex -4.17836 10 19
      vertex -3.8603 10 20.599
    endloop
  endfacet
  facet normal 0.980785 0 -0.19509
    outer loop
      vertex -4.17836 10 19
      vertex -3.8603 0 20.599
      vertex -4.17836 0 19
    endloop
  endfacet
  facet normal 0.19509 0 -0.980785
    outer loop
      vertex -1.59899 0 22.8603
      vertex 0 10 23.1784
      vertex 0 0 23.1784
    endloop
  endfacet
  facet normal 0.19509 0 -0.980785
    outer loop
      vertex 0 10 23.1784
      vertex -1.59899 0 22.8603
      vertex -1.59899 10 22.8603
    endloop
  endfacet
  facet normal 0.555572 0 -0.831468
    outer loop
      vertex -1.59899 0 22.8603
      vertex -1.81229 10 22.7178
      vertex -1.59899 10 22.8603
    endloop
  endfacet
  facet normal 0.55557 -6.37333e-08 -0.83147
    outer loop
      vertex -2.95455 0 21.9545
      vertex -1.81229 10 22.7178
      vertex -1.59899 0 22.8603
    endloop
  endfacet
  facet normal 0.55557 0 -0.83147
    outer loop
      vertex -1.81229 10 22.7178
      vertex -2.95455 0 21.9545
      vertex -2.95455 10 21.9545
    endloop
  endfacet
  facet normal -0.55557 0 -0.83147
    outer loop
      vertex 2.95455 0 21.9545
      vertex 1.81229 10 22.7178
      vertex 2.95455 10 21.9545
    endloop
  endfacet
  facet normal -0.55557 -6.37333e-08 -0.83147
    outer loop
      vertex 1.59899 0 22.8603
      vertex 1.81229 10 22.7178
      vertex 2.95455 0 21.9545
    endloop
  endfacet
  facet normal -0.555572 0 -0.831468
    outer loop
      vertex 1.81229 10 22.7178
      vertex 1.59899 0 22.8603
      vertex 1.59899 10 22.8603
    endloop
  endfacet
  facet normal -0.19509 0 -0.980785
    outer loop
      vertex 0 0 23.1784
      vertex 1.59899 10 22.8603
      vertex 1.59899 0 22.8603
    endloop
  endfacet
  facet normal -0.19509 0 -0.980785
    outer loop
      vertex 1.59899 10 22.8603
      vertex 0 0 23.1784
      vertex 0 10 23.1784
    endloop
  endfacet
endsolid OpenSCAD_Model
